<svg xmlns="http://www.w3.org/2000/svg" width="38" height="38" fill="none"><path fill="#EE3D41" fill-rule="evenodd" d="M14.795 22.513c-.289.637-1.054.96-1.75.896-.697-.066-1.325-.451-1.852-.911-.526-.46-.977-1-1.498-1.467-.537-.48-1.161-.885-1.86-1.063s-1.482-.11-2.083.288-.98 1.153-.835 1.86c.038.187.153.4.345.405.236.006.343-.28.474-.477.242-.361.743-.488 1.164-.378s.767.416 1.027.765.448.745.666 1.12a7.8 7.8 0 0 0 2.653 2.71c.894.547 1.96.914 2.986.708.7-.14 1.341-.55 1.762-1.126.42-.575.616-1.31.537-2.018z" clip-rule="evenodd"></path><path fill="#F26F5C" fill-rule="evenodd" d="m13.757 23.344-.004.004-.389.184c-.676.337-1.516.081-2.123-.37-.607-.453-1.059-1.077-1.606-1.6a6.2 6.2 0 0 0-3.187-1.608q.18-.046.369-.064a3 3 0 0 1 1.018.078c.699.178 1.323.582 1.86 1.063.521.466.972 1.007 1.498 1.467.527.46 1.156.845 1.852.91.236.023.48 0 .712-.064" clip-rule="evenodd"></path><path fill="#CD202C" fill-rule="evenodd" d="M15.505 26.36a2.9 2.9 0 0 1-1.273.609c-1.027.206-2.092-.162-2.986-.707a7.8 7.8 0 0 1-2.653-2.71c-.219-.376-.407-.772-.666-1.12-.26-.35-.606-.656-1.027-.766s-.922.017-1.164.378c-.131.196-.238.483-.474.477-.192-.006-.307-.218-.345-.406-.146-.706.233-1.46.835-1.859.213-.14.449-.24.696-.302q.18-.045.369-.065-.104.046-.203.096a2.7 2.7 0 0 0-.619.424c-.432.4-.7 1.023-.535 1.587.166-.596.836-.955 1.455-.914.618.04 1.175.403 1.61.845.433.443.77.969 1.161 1.45.568.7 1.282 1.324 2.151 1.565.785.217 1.652.056 2.256-.5.265-.243.386-.358.735-.15.352.211.626.568.741.96.106.362.077.759-.064 1.108" clip-rule="evenodd"></path><path stroke="#000" stroke-width="0.185" d="M15.994 25.844q-.212.288-.489.516a2.9 2.9 0 0 1-1.273.609c-1.027.206-2.092-.161-2.986-.707a7.8 7.8 0 0 1-2.653-2.71c-.219-.376-.407-.772-.666-1.12-.26-.35-.605-.656-1.027-.766-.42-.11-.921.017-1.164.379-.131.195-.238.483-.474.476-.192-.006-.306-.218-.345-.406-.145-.706.233-1.46.835-1.859.213-.14.449-.24.696-.302q.18-.046.369-.064a3 3 0 0 1 1.018.078c.699.178 1.323.582 1.86 1.063.521.466.972 1.007 1.498 1.467.527.46 1.156.845 1.852.91.237.023.48 0 .712-.064.45-.126.847-.41 1.039-.83l1.735 1.31a2.9 2.9 0 0 1-.537 2.02Z" clip-rule="evenodd"></path><path fill="#EE3D41" fill-rule="evenodd" d="M16.731 26.16a4.76 4.76 0 0 1-1.919 1.828c-.796.412-1.71.59-2.602.51-1.134-.103-2.249-.612-3.371-.422.309.574.161 1.324-.376 1.696-.536.372-1.308.33-1.836-.054-.53-.383-.808-1.062-.764-1.713s.39-1.264.883-1.691 1.125-.68 1.77-.777c1.422-.215 2.928.279 4.287-.189a3.2 3.2 0 0 0 1.73-1.442c.377-.67.498-1.477.334-2.227z" clip-rule="evenodd"></path><path fill="#CD202C" fill-rule="evenodd" d="M16.731 26.161a4.76 4.76 0 0 1-1.919 1.828c-.795.41-1.71.59-2.602.509-1.122-.101-2.225-.601-3.335-.428-.138-.128-.269-.268-.434-.358-.177-.098-.409-.128-.575-.012-.166.115-.197.404-.024.51.102.061.23.044.348.065.116.022.242.129.199.24-.168.043-.338.088-.511.074s-.35-.098-.429-.252c-.11-.217.009-.483.17-.665.412-.464 1.07-.633 1.69-.638s1.234.128 1.854.16c.62.033 1.28-.05 1.769-.432.56-.436.625-1.042.372-1.637.51-.284.943-.71 1.23-1.219a3.2 3.2 0 0 0 .399-1.74q.063-.013.128-.019z" clip-rule="evenodd"></path><path fill="#CD202C" fill-rule="evenodd" d="M8.856 29.319a1.2 1.2 0 0 1-.393.454c-.536.372-1.307.329-1.836-.055-.53-.383-.808-1.062-.764-1.713.044-.65.39-1.263.883-1.691q.048-.042.097-.081c-.04.126-.11.254-.142.319-.173.35-.31.723-.357 1.113-.083.694.188 1.477.813 1.792.53.267 1.155.138 1.699-.138" clip-rule="evenodd"></path><path stroke="#000" stroke-width="0.185" d="M16.73 26.16a4.76 4.76 0 0 1-1.918 1.829c-.795.41-1.71.59-2.602.509-1.122-.101-2.225-.602-3.335-.428l-.036.006c.21.391.209.864.017 1.243-.09.178-.221.335-.392.454-.537.372-1.308.328-1.837-.054-.53-.384-.808-1.063-.764-1.714.045-.65.39-1.263.883-1.691q.048-.042.097-.081c.478-.379 1.07-.604 1.674-.696 1.421-.214 2.927.28 4.286-.188q.26-.09.5-.224c.512-.284.944-.71 1.23-1.219a3.2 3.2 0 0 0 .334-2.227l.194.468z" clip-rule="evenodd"></path><path stroke="#000" stroke-linecap="round" stroke-linejoin="round" stroke-width="0.185" d="M8.839 28.076a.76.76 0 0 0-.654-.372.76.76 0 0 0-.642.393.43.43 0 0 0-.058.246c.009.085.06.17.138.202.075.03.16.012.238-.01s.159-.047.238-.029c.078.019.149.1.123.176"></path><path fill="#EE3D41" fill-rule="evenodd" d="M23.162 21.295a2.02 2.02 0 0 1 1.596-1.097 2.02 2.02 0 0 1 1.768.789c.262.352.399.78.533 1.198.135.418.276.844.545 1.192.269.347.694.606 1.13.558a4 4 0 0 1-1.928 1.338c-.754.238-1.615.18-2.288-.236-.589-.364-.999-.976-1.204-1.637-.205-.66-.457-1.484-.152-2.105" clip-rule="evenodd"></path><path stroke="#000" stroke-width="0.185" d="M23.162 21.295a2.02 2.02 0 0 1 1.596-1.097 2.02 2.02 0 0 1 1.768.789c.262.352.399.78.533 1.198.135.418.276.844.545 1.192.269.347.694.606 1.13.558a4 4 0 0 1-1.928 1.338c-.754.238-1.615.18-2.288-.236-.589-.364-.999-.976-1.204-1.637-.205-.66-.457-1.484-.152-2.105Z" clip-rule="evenodd"></path><path fill="#CD202C" fill-rule="evenodd" d="M25.935 21.907c.222.44.281.943.469 1.399.187.455.579.892 1.072.884-.544.672-1.437 1.116-2.28.926-.948-.212-1.464-1.074-1.421-2 .03-.642.225-1.673.942-1.897.512-.16 1.001.258 1.218.688" clip-rule="evenodd"></path><path fill="#EE3D41" fill-rule="evenodd" d="M24.293 21.627c-.297.818.083 1.824.847 2.242s1.817.196 2.348-.494c.529-.689.507-1.638.456-2.504-.116-1.962-.255-3.953.156-5.875.41-1.922 1.456-3.804 3.18-4.75.257-.142.64-.23.792.02.148.244-.087.532-.282.739-1.124 1.189-1.449 2.934-1.393 4.568s.44 3.242.517 4.875c.077 1.632-.2 3.378-1.278 4.609-.467.533-.993.962-1.634 1.266s-1.363.456-2.066.361c-.703-.094-1.38-.45-1.801-1.02-.362-.49-.518-1.112-.517-1.721.002-.61.152-1.21.358-1.783z" clip-rule="evenodd"></path><path fill="#F26F5C" fill-rule="evenodd" d="M31.79 11.005c-1.124 1.189-1.449 2.935-1.393 4.568.056 1.634.44 3.242.517 4.875.057 1.203-.08 2.47-.588 3.546-.28.185-.59.327-.916.412.616-1.103.804-2.398.79-3.66s-.22-2.514-.34-3.772c-.12-1.257-.152-2.543.17-3.764.313-1.183.997-2.31 2.037-2.952l.005.008c.148.243-.087.532-.282.739" clip-rule="evenodd"></path><path fill="#CD202C" fill-rule="evenodd" d="M31.32 10.225c-.093.107-.199.2-.275.265-.358.302-.684.611-.962.99-.316.43-.567.906-.756 1.405-.455 1.204-.556 2.513-.547 3.8s.126 2.573.088 3.86c-.019.64-.077 1.286-.292 1.89-.215.602-.601 1.163-1.155 1.484-.469.272-1.065.348-1.566.157.614.044 1.256-.21 1.633-.7.529-.69.507-1.639.456-2.505-.115-1.962-.254-3.953.156-5.875s1.456-3.804 3.18-4.75z" clip-rule="evenodd"></path><path fill="#CD202C" fill-rule="evenodd" d="M26.06 25.114c.746.27 1.595.11 2.302-.252s1.078-.444 1.66-.984c-.4 1.313-1.175 1.967-2.434 2.517-.584.255-1.229.392-1.862.322-.634-.07-1.254-.357-1.664-.843-.41-.487-.588-1.18-.398-1.787.09-.286.26-.551.504-.724.12-.084.179-.458.214-.316.04.162.318.512.346.671.036.207.18.432.299.6.255.36.617.645 1.032.795" clip-rule="evenodd"></path><path stroke="#000" stroke-width="0.185" d="M31.79 11.005c-1.124 1.189-1.449 2.935-1.393 4.568.056 1.634.44 3.242.517 4.875.057 1.203-.08 2.47-.588 3.546-.18.382-.408.74-.69 1.063-.467.533-.993.962-1.634 1.266-.64.303-1.363.456-2.066.361-.702-.094-1.38-.45-1.801-1.02-.362-.49-.518-1.112-.517-1.721.002-.61.153-1.21.358-1.784l.317-.532c-.297.818.083 1.824.847 2.242.22.12.465.188.715.206.614.045 1.256-.209 1.633-.7.528-.689.507-1.638.456-2.504-.115-1.962-.254-3.953.156-5.875s1.456-3.804 3.18-4.75q.02-.011.04-.021c.252-.127.6-.195.747.033l.005.008c.148.243-.087.532-.282.739Z" clip-rule="evenodd"></path><path fill="#EE3D41" fill-rule="evenodd" d="M31.486 27.09c.293.34.819.416 1.238.255s.738-.518.95-.914c.29-.542.406-1.186.267-1.785-.14-.6-.547-1.142-1.108-1.395-.663-.3-1.454-.174-2.109.143-.654.318-2.32 1.985-3.643 2.36-1.61.456-4.298-.236-2.2-4.183 3.524-6.63 1.496-11.815-.755-14.092-2.251-2.276-5.79-3.188-8.862-2.283-2.457.724-4.551 2.545-5.681 4.84-1.13 2.297-1.301 5.03-.545 7.475.672 2.172 2.426 3.77 4.344 4.991.534.34 1.029.654 1.442 1.042.063.059.218.172.267.24.187.753-.122 1.635-.604 2.258-.534.69-1.288 1.172-2.028 1.637s-1.497.94-2.042 1.624c-.546.682-.848 1.624-.55 2.445.302.83 1.162 1.344 2.031 1.5 3.365.6 5.883-2.798 8.256-2.798 1.815 0 1.721.909 1.135 1.343-.227.168-.548.304-.535.586.011.253.353.33.603.29.8-.123 1.506-.7 1.818-1.441.49.456 1.168.719 1.843.785.894.087 1.79-.126 2.643-.404.854-.277 1.69-.622 2.567-.808.272-.058.552-.1.825-.055.274.044.543.189.68.43.137.24.107.582-.11.755-.104.084-.237.122-.354.188s-.225.18-.215.313c.015.212.29.287.502.273a2 2 0 0 0 1.548-.948 2 2 0 0 0 .114-1.81c-.359-.81-1.232-1.29-2.105-1.458-.6-.115-1.21-.11-1.823-.095a7 7 0 0 0 1.15-1.136c.317-.399.629-.795.987-1.152a.845.845 0 0 0 .06.984" clip-rule="evenodd"></path><path fill="#F26F5C" fill-rule="evenodd" d="M22.95 29.85a2.62 2.62 0 0 0-1.429-1.733c-.987-.453-2.137-.244-3.2-.026l-2.706.552c1.063-.166 2.05-.637 3.078-.954s2.18-.467 3.151-.005a2.77 2.77 0 0 1 1.524 2.083c.09.664-.087 1.704-.654 2.135-.118-.201.202-.687.25-.917a2.6 2.6 0 0 0-.013-1.135M24.547 16.916l-.011-.017a.97.97 0 0 1-.215-.817c.142.238.326.45.54.625-.116.075-.198.134-.314.209" clip-rule="evenodd"></path><path fill="#F26F5C" fill-rule="evenodd" d="M24.88 21.57c-.982 1.85-.914 2.986-.398 3.622a2.2 2.2 0 0 1-.465-.592c-.378-.707-.388-1.565-.195-2.343.309-1.248 1.066-2.341 1.567-3.516q.332-.78.55-1.599a12.525 12.525 0 0 0 .182-5.657q-.117-.596-.295-1.178c-.063-.209-.33-.7-.324-.956 1.493 2.717 2.14 7.024-.621 12.22" clip-rule="evenodd"></path><path fill="#CD202C" fill-rule="evenodd" d="M21.91 31.693c-.462.633-1.213.585-.996.917-.091-.048-.155-.124-.16-.23-.013-.283.308-.419.535-.587.586-.434.68-1.343-1.136-1.343-2.372 0-4.89 3.399-8.254 2.797-.87-.155-1.73-.67-2.032-1.5-.298-.82.004-1.762.55-2.445.545-.682 1.302-1.158 2.042-1.623.74-.464 1.494-.946 2.028-1.638.482-.622.79-1.504.604-2.257-.05-.069-.204-.181-.266-.24-.414-.388-.908-.701-1.442-1.042-1.92-1.222-3.673-2.819-4.345-4.99-.756-2.445-.585-5.179.545-7.475s3.224-4.117 5.681-4.84c3.073-.906 6.61.005 8.862 2.282.416.421.825.942 1.192 1.553-1.577-.726-3.412-.805-5.13-.508-1.859.32-3.618 1.047-5.359 1.769-.954.396-1.944.816-2.625 1.591-.788.898-1.05 2.17-.918 3.357.131 1.187.617 2.306 1.175 3.362.431.818.927 1.6 1.465 2.353q.403.562.832 1.104c.268.34.514.704.8 1.024.468.526 1.02.979 1.627 1.335.062.036.125.072.17.128.044.056.065.137.032.2-.036.066-.12.09-.195.103-.251.042-.512.023-.759.089-.486.13-.559.638-.801 1.01a9.4 9.4 0 0 1-1.48 1.741c-.377.346-.766.703-.976 1.17-.21.465-.196 1.073.175 1.425.392.372 1.014.336 1.54.207 1.153-.281 2.507-.767 3.648-1.097 2.861-.827 4.617.59 3.371 2.298" clip-rule="evenodd"></path><path fill="#F26F5C" fill-rule="evenodd" d="M33.104 31.757a2 2 0 0 1-.349.424c.026-.155.146-.382.17-.46.076-.246.129-.498.14-.755.024-.504-.124-1.035-.485-1.388-.343-.336-.83-.477-1.304-.555-1.146-.187-2.321-.075-3.474-.207-1.153-.134-2.363-.58-2.98-1.563.963.832 2.3 1.079 3.572 1.127.299.012.597.014.896.014h.003q.48-.002.96.001h.004c.288.013.573.04.856.094.873.168 1.747.647 2.105 1.46.254.573.21 1.27-.114 1.808" clip-rule="evenodd"></path><path fill="#CD202C" fill-rule="evenodd" d="M32.454 31.317c-.016.376-.252.718-.557.94-.223.163-.481.27-.748.348a.24.24 0 0 1-.095-.173c-.01-.134.098-.247.215-.313s.25-.104.354-.188c.217-.173.247-.514.11-.755s-.406-.386-.68-.43c-.273-.045-.553-.003-.825.055-.878.186-1.713.53-2.567.808s-1.75.491-2.643.404c-.654-.064-1.312-.313-1.799-.745.037-.49.024-.979.079-1.468.537.665 1.425.967 2.28.989.854.021 1.694-.202 2.52-.425.825-.222 1.665-.445 2.52-.423.426.011.864.089 1.224.318s.63.632.612 1.058" clip-rule="evenodd"></path><path fill="#F26F5C" fill-rule="evenodd" d="m33.679 26.423-.33.199c.294-.477.45-1.05.365-1.602-.087-.552-.438-1.074-.95-1.299-.618-.27-1.349-.081-1.935.252-.588.333-1.09.8-1.672 1.139a4.55 4.55 0 0 1-1.927.595c1.297-.448 2.864-2.006 3.494-2.312.655-.318 1.446-.444 2.11-.145.56.254.968.797 1.107 1.396.139.596.025 1.237-.262 1.777" clip-rule="evenodd"></path><path fill="#CD202C" fill-rule="evenodd" d="M33.314 26.936a1.6 1.6 0 0 1-.59.409c-.42.16-.945.086-1.238-.254a.85.85 0 0 1-.059-.985c-.359.358-.67.753-.987 1.152a7 7 0 0 1-1.066 1.07 7.7 7.7 0 0 1-1.392.012 6.44 6.44 0 0 1-3.072-1.114c.151.105.74.124.928.121.244-.004.504-.069.745-.12a6.1 6.1 0 0 0 1.535-.575c1.082-.564 2.058-1.334 3.195-1.778.352-.138.731-.244 1.104-.188s.739.312.822.68-.22.802-.596.77c.218-.064.294-.374.162-.557s-.406-.228-.613-.136c-.207.09-.35.29-.426.504-.114.326-.072.727.18.965.21.201.53.254.818.208.192-.032.374-.101.55-.184" clip-rule="evenodd"></path><path stroke="#000" stroke-width="0.185" d="m33.679 26.423-.005.009a2.4 2.4 0 0 1-.36.504 1.6 1.6 0 0 1-.59.409c-.42.16-.945.086-1.238-.254a.845.845 0 0 1-.058-.985c-.36.357-.67.753-.988 1.152a7 7 0 0 1-1.15 1.136h.004c.32-.008.64-.012.96.001h.003c.288.012.573.04.856.094.873.168 1.747.647 2.105 1.459.255.574.21 1.271-.114 1.81q-.144.237-.349.423c-.327.3-.755.492-1.2.523-.138.01-.303-.02-.406-.1a.24.24 0 0 1-.095-.172c-.01-.134.099-.247.215-.313.117-.066.25-.104.354-.188.217-.173.247-.515.11-.755-.137-.241-.406-.386-.68-.43-.273-.045-.553-.003-.825.055-.878.187-1.713.53-2.567.808s-1.75.491-2.643.404c-.654-.064-1.312-.313-1.799-.745l-.044-.04c-.312.742-1.018 1.318-1.818 1.441a.76.76 0 0 1-.443-.06c-.091-.048-.155-.123-.16-.23-.013-.282.307-.418.535-.586.587-.434.68-1.343-1.136-1.343-2.372 0-4.89 3.399-8.254 2.797-.87-.155-1.73-.67-2.032-1.499-.298-.82.004-1.763.55-2.446.546-.682 1.302-1.157 2.042-1.623.74-.464 1.494-.946 2.029-1.637.481-.623.79-1.505.603-2.258-.05-.068-.204-.181-.267-.24-.413-.388-.907-.702-1.441-1.042-1.92-1.222-3.673-2.819-4.345-4.991-.756-2.444-.585-5.178.545-7.474s3.224-4.117 5.681-4.84c3.073-.906 6.611.005 8.862 2.282.416.421.825.942 1.192 1.553q.093.155.184.32c1.493 2.716 2.14 7.023-.621 12.219-.983 1.85-.915 2.985-.4 3.621.585.722 1.745.804 2.6.562a3 3 0 0 0 .148-.047c1.298-.449 2.865-2.006 3.496-2.312.654-.319 1.445-.444 2.108-.145.561.254.969.797 1.108 1.396.14.596.025 1.237-.262 1.777Z" clip-rule="evenodd"></path><path fill="#fff" fill-rule="evenodd" d="M8.872 16.693c.107-2.148.738-3.66 2.34-5.119 1.6-1.46 5.448-3.584 9.833-4.364 1.309-.233 3.465.092 4.048 1.424-1.15-2.248-2.673-4.26-4.986-5.115-2.314-.855-4.997-.635-7.17.525S9.122 7.269 8.428 9.609c-.693 2.34-.116 5.577.444 7.084" clip-rule="evenodd"></path><path fill="#C4C4C2" fill-rule="evenodd" d="M12.657 10.482c-.587.384-1.076.756-1.446 1.092-1.6 1.46-2.232 2.971-2.339 5.12-.56-1.508-1.137-4.745-.443-7.085a9.46 9.46 0 0 1 3.21-4.717c-.516.449-.883 1.072-.738 1.915.171 1.002.98 2.838 1.756 3.675" clip-rule="evenodd"></path><path stroke="#000" stroke-linecap="round" stroke-linejoin="round" stroke-width="0.185" d="M24.987 8.43c-.703-1.16-2.703-1.44-3.942-1.22-3.373.6-6.429 1.996-8.388 3.272-.587.384-1.076.756-1.446 1.092-1.6 1.46-2.232 2.971-2.339 5.12-.56-1.508-1.137-4.745-.443-7.085a9.46 9.46 0 0 1 3.663-5.05 9 9 0 0 1 .845-.515c2.173-1.16 4.856-1.38 7.17-.525 2.244.83 3.742 2.747 4.88 4.911M25.093 8.634l-.106-.204q.06.098.106.204" clip-rule="evenodd"></path><path stroke="#000" stroke-linecap="round" stroke-linejoin="round" stroke-width="0.185" d="M10.842 5.595c-1.163 1.394.302 4.298 1.003 5.426"></path><path fill="#fff" fill-rule="evenodd" d="M20.663 7.245c-4.752 1.763-7.389 4.178-9.452 4.33.516-.507 4.7-4.15 9.452-4.33" clip-rule="evenodd"></path><mask id="Octo_Register_svg__a" width="10" height="5" x="11" y="7" maskUnits="userSpaceOnUse" style="mask-type: luminance;"><path fill="#fff" fill-rule="evenodd" d="M11.211 11.575c2.063-.151 4.7-2.566 9.452-4.33-4.752.181-8.936 3.823-9.452 4.33" clip-rule="evenodd"></path></mask><g mask="url(#Octo_Register_svg__a)"><path fill="#C4C4C2" fill-rule="evenodd" d="M21.045 7.21c-1.762 3.122-8.282 6.174-11.819 6.942.114-.025.427-.793.501-.918q.287-.483.609-.943c.342-.49.728-1.147 1.263-1.454.404-.232.895-.42 1.319-.628.746-.366 4.283-2.182 8.127-2.999" clip-rule="evenodd"></path></g><path stroke="#000" stroke-linecap="round" stroke-linejoin="round" stroke-width="0.185" d="M20.663 7.245c-4.752 1.763-7.389 4.178-9.452 4.33.516-.507 4.7-4.15 9.452-4.33" clip-rule="evenodd"></path><path fill="#C1C3C3" fill-rule="evenodd" d="M20.28 7.395c.985-.473 4.342-.322 5.51 2.578.73-.114 1.42-.958 1.592-1.676.303-1.27-1.365-3.213-7.102-.902" clip-rule="evenodd"></path><path stroke="#000" stroke-linecap="round" stroke-linejoin="round" stroke-width="0.185" d="M20.28 7.395c.985-.473 4.342-.322 5.51 2.578.73-.114 1.42-.958 1.592-1.676.303-1.27-1.365-3.213-7.102-.902" clip-rule="evenodd"></path><path fill="#000" fill-rule="evenodd" d="M21.234 8.27c-.026.115.125.184.192.087.302-.44.75-.83 1.268-.896.656-.083 2.022.512 2.978 2.242-.102-.701-.51-1.775-1.016-2.258-.59-.563-1.323-.768-2.101-.522-.623.197-1.184.728-1.321 1.347" clip-rule="evenodd"></path><path stroke="#000" stroke-linecap="round" stroke-linejoin="round" stroke-width="0.185" d="M21.234 8.27c-.026.115.125.184.192.087.302-.44.75-.83 1.268-.896.656-.083 2.022.512 2.978 2.242-.102-.701-.51-1.775-1.016-2.258-.59-.563-1.323-.768-2.101-.522-.623.197-1.184.728-1.321 1.347" clip-rule="evenodd"></path><path stroke="#000" stroke-linecap="round" stroke-linejoin="round" stroke-width="0.185" d="M29.29 28.394c-1.911.072-3.69-.264-4.905-1.644M23.175 31.228c.225-.562.283-1.342.055-2.004a2.76 2.76 0 0 0-1.346-1.544c-.96-.486-2.117-.366-3.15-.065-1.033.3-2.02.769-3.08.959-.221.04-.46.065-.663-.035-.202-.1-.334-.37-.211-.56M31.395 26.158a1.8 1.8 0 0 1 .74-.688c.154-.077.342-.131.494-.05.183.097.225.359.138.547-.088.189-.268.316-.45.417M16.586 17.93c.434.056.887-.07 1.23-.342M24.365 16.142c.173.182.343.398.516.58-.162.12-.232.162-.393.283"></path><path fill="#000" fill-rule="evenodd" d="M17.089 17.932c.052.804.119 1.62.416 2.37.298.748.865 1.43 1.633 1.674.5.159 1.048.122 1.546-.043s.948-.45 1.356-.779a6.94 6.94 0 0 0 2.448-4.15c-1.026.82-2.793 1.412-4.094 1.59s-2.396 0-3.305-.662" clip-rule="evenodd"></path><mask id="Octo_Register_svg__b" width="8" height="6" x="17" y="17" maskUnits="userSpaceOnUse" style="mask-type: luminance;"><path fill="#fff" fill-rule="evenodd" d="M20.394 18.595c-1.301.178-2.396 0-3.305-.663.052.804.118 1.621.416 2.37.298.748.865 1.43 1.633 1.674.5.16 1.048.122 1.546-.042.498-.165.948-.45 1.356-.78a6.95 6.95 0 0 0 2.448-4.149c-1.026.82-2.793 1.412-4.094 1.59" clip-rule="evenodd"></path></mask><g mask="url(#Octo_Register_svg__b)"><path fill="#fff" fill-rule="evenodd" d="M22.299 19.05c.891-.347 1.187-.958 1.242-1.685-.007.105-1.2.365-1.337.401a19 19 0 0 1-3.52.569c-.139.009-.498-.04-.594.084-.22.287 1.537 1.673 4.209.632" clip-rule="evenodd"></path></g><mask id="Octo_Register_svg__c" width="8" height="6" x="17" y="17" maskUnits="userSpaceOnUse" style="mask-type: luminance;"><path fill="#fff" fill-rule="evenodd" d="M20.394 18.595c-1.301.178-2.396 0-3.305-.663.052.804.118 1.621.416 2.37.298.748.865 1.43 1.633 1.674.5.16 1.048.122 1.546-.042.498-.165.948-.45 1.356-.78a6.95 6.95 0 0 0 2.448-4.149c-1.026.82-2.793 1.412-4.094 1.59" clip-rule="evenodd"></path></mask><g mask="url(#Octo_Register_svg__c)"><path stroke="#000" stroke-linecap="round" stroke-linejoin="round" stroke-width="0.185" d="M22.299 19.05c.891-.347 1.187-.958 1.242-1.685-.007.105-1.2.365-1.337.401a19 19 0 0 1-3.52.569c-.139.009-.498-.04-.594.084-.22.287 1.537 1.673 4.209.632" clip-rule="evenodd"></path></g><mask id="Octo_Register_svg__d" width="8" height="6" x="17" y="17" maskUnits="userSpaceOnUse" style="mask-type: luminance;"><path fill="#fff" fill-rule="evenodd" d="M20.394 18.595c-1.301.178-2.396 0-3.305-.663.052.804.118 1.621.416 2.37.298.748.865 1.43 1.633 1.674.5.16 1.048.122 1.546-.042.498-.165.948-.45 1.356-.78a6.95 6.95 0 0 0 2.448-4.149c-1.026.82-2.793 1.412-4.094 1.59" clip-rule="evenodd"></path></mask><g mask="url(#Octo_Register_svg__d)"><path fill="#F289AA" fill-rule="evenodd" d="M17.23 20.237a5.3 5.3 0 0 1 2.343-.297c.523.052 1.046.187 1.497.457.45.27.826.687.985 1.187-.42.328-.837.669-1.327.878s-1.032.318-1.56.247a2.4 2.4 0 0 1-1.535-.867c-.377-.47-.455-1.005-.404-1.605" clip-rule="evenodd"></path></g><path stroke="#000" stroke-linecap="round" stroke-linejoin="round" stroke-width="0.185" d="M17.089 17.933c.052.803.118 1.62.416 2.369.298.748.864 1.43 1.633 1.674.5.16 1.048.122 1.546-.042.498-.165.948-.45 1.356-.78a6.94 6.94 0 0 0 2.448-4.149c-1.026.82-2.794 1.412-4.095 1.59s-2.396 0-3.304-.662" clip-rule="evenodd"></path><path fill="#000" fill-rule="evenodd" d="M15.512 11.051a3.84 3.84 0 0 0-3.216 1.501c.01.265.13.54.309.737.473-1.183 1.643-2.066 2.907-2.238" clip-rule="evenodd"></path><path stroke="#000" stroke-linecap="round" stroke-linejoin="round" stroke-width="0.185" d="M15.512 11.051a3.84 3.84 0 0 0-3.216 1.501c.01.265.13.54.309.737.473-1.183 1.643-2.066 2.907-2.238" clip-rule="evenodd"></path><path fill="#000" fill-rule="evenodd" d="M23.469 9.498a2.44 2.44 0 0 1 1.946.182c-.043.262-.03.542-.073.804-.492-.546-1.245-.929-1.977-.986.043.011.06-.01.104 0" clip-rule="evenodd"></path><path stroke="#000" stroke-linecap="round" stroke-linejoin="round" stroke-width="0.185" d="M23.469 9.498a2.44 2.44 0 0 1 1.946.182c-.043.262-.03.542-.073.804-.492-.546-1.245-.929-1.977-.986.043.011.06-.01.104 0" clip-rule="evenodd"></path><path fill="#fff" fill-rule="evenodd" d="M17.367 12.356a2.61 2.61 0 0 0-1.777-1.292c-.99-.188-2.067.258-2.665 1.105s-.687 2.053-.22 2.983c.466.93 1.466 1.539 2.472 1.506s1.97-.706 2.384-1.665c.414-.958.259-2.156-.385-2.962" clip-rule="evenodd"></path><path stroke="#000" stroke-linecap="round" stroke-linejoin="round" stroke-width="0.185" d="M17.367 12.356a2.61 2.61 0 0 0-1.777-1.292c-.99-.188-2.067.258-2.665 1.105s-.687 2.053-.22 2.983c.466.93 1.466 1.539 2.472 1.506s1.97-.706 2.384-1.665c.414-.958.259-2.156-.385-2.962"></path><path fill="#fff" fill-rule="evenodd" d="M26.042 11.766c.271 1.473-.383 2.827-1.46 3.025-1.078.198-2.172-.836-2.443-2.309s.383-2.828 1.46-3.026c1.078-.198 2.172.836 2.443 2.31" clip-rule="evenodd"></path><path stroke="#000" stroke-linecap="round" stroke-linejoin="round" stroke-width="0.185" d="M26.042 11.766c.271 1.473-.383 2.827-1.46 3.025-1.078.198-2.172-.836-2.443-2.309s.383-2.828 1.46-3.026c1.078-.198 2.172.836 2.443 2.31" clip-rule="evenodd"></path><path fill="#000" fill-rule="evenodd" d="M16.997 14.145c0 1.233-.859 2.232-1.918 2.232-1.06 0-1.918-1-1.918-2.232s.859-2.23 1.918-2.23c1.06 0 1.918.998 1.918 2.23" clip-rule="evenodd"></path><path stroke="#000" stroke-linecap="round" stroke-linejoin="round" stroke-width="0.185" d="M16.997 14.145c0 1.233-.859 2.232-1.918 2.232-1.06 0-1.918-1-1.918-2.232s.859-2.23 1.918-2.23c1.06 0 1.918.998 1.918 2.23" clip-rule="evenodd"></path><path stroke="#9A5225" stroke-linecap="round" stroke-linejoin="round" stroke-width="0.494" d="M14.07 15.242c.54 1.356 2.654.615 2.433-1.294"></path><path fill="#000" fill-rule="evenodd" d="M25.293 12.02c.312 1.09-.096 2.168-.912 2.406s-1.73-.454-2.042-1.545.097-2.169.913-2.407c.815-.238 1.73.454 2.041 1.545" clip-rule="evenodd"></path><path stroke="#000" stroke-linecap="round" stroke-linejoin="round" stroke-width="0.185" d="M25.293 12.02c.312 1.09-.096 2.168-.912 2.406s-1.73-.454-2.042-1.545.097-2.169.913-2.407c.815-.238 1.73.454 2.041 1.545" clip-rule="evenodd"></path><path stroke="#9A5225" stroke-linecap="round" stroke-linejoin="round" stroke-width="0.494" d="M23.124 13.448c.113.155.238.305.39.422s.337.2.53.207c.26.01.515-.123.684-.322a1.3 1.3 0 0 0 .279-.717 2.4 2.4 0 0 0-.076-.775"></path><path fill="#fff" fill-rule="evenodd" d="M15.906 13.286a.487.487 0 1 1-.974 0 .487.487 0 0 1 .974 0M24.55 11.433c.1.25.024.515-.171.593-.195.079-.435-.06-.535-.31s-.024-.515.171-.593c.196-.078.435.06.536.31M14.537 15.442a.255.255 0 1 1-.51 0 .255.255 0 0 1 .51 0M23.657 13.458c.047.133.009.267-.085.3-.095.033-.209-.047-.256-.18s-.009-.267.085-.3c.094-.034.209.047.256.18" clip-rule="evenodd"></path><path stroke="#000" stroke-linecap="round" stroke-linejoin="round" stroke-width="0.185" d="M14.733 23.452c.285.24.726.69 1.005 1.094"></path><path fill="#000" fill-rule="evenodd" d="M27.474 11.475a7.8 7.8 0 0 1 1.484.063l.368.06.364.075.361.092.357.108c.473.153.932.35 1.368.587.437.238.85.517 1.228.836a.074.074 0 0 1-.09.118q-.601-.415-1.25-.741a10 10 0 0 0-1.336-.558l-.346-.107-.35-.095-.353-.081-.356-.069a10 10 0 0 0-1.446-.14.074.074 0 0 1-.003-.148M27.835 12.56a5.5 5.5 0 0 1 2.117.411c.336.136.66.302.963.499.304.196.59.422.842.679a.07.07 0 0 1 0 .101.07.07 0 0 1-.094.006q-.42-.32-.871-.586a7.5 7.5 0 0 0-.937-.461 7.5 7.5 0 0 0-2.027-.506.072.072 0 0 1 .007-.143" clip-rule="evenodd"></path><path fill="#790008" fill-rule="evenodd" d="M13.418 8.193q-.843.466-1.684 1.032-.177-.942-.343-1.908.82-.54 1.642-.983.186.94.385 1.86" clip-rule="evenodd"></path><path fill="#fff" fill-rule="evenodd" d="M12.553 6.997q-.439.255-.876.538.246.173.498.345.442-.275.885-.521-.256-.18-.507-.362" clip-rule="evenodd"></path><path fill="#EC1C24" fill-rule="evenodd" d="M13.06 7.359q-.443.247-.885.521l-.281.838q.444-.291.89-.554z" clip-rule="evenodd"></path><path fill="#790008" fill-rule="evenodd" d="M14.547 6.95a.5.5 0 0 1-.203.19c-.2.094-.393 0-.441-.223a.52.52 0 0 1 .263-.567.3.3 0 0 1 .24-.017l.005.002.113-.236-.004-.002a.5.5 0 0 0-.406.015c-.317.148-.515.57-.44.92.075.352.4.498.724.342a.8.8 0 0 0 .341-.327l.003-.006-.192-.096zm.432.12q.11-.05.22-.096-.142-.585-.28-1.178l-.217.091q.136.596.277 1.182m.98-.856a74 74 0 0 1-.564-.61l-.211.082q.138.592.284 1.175.11-.045.22-.088-.088-.347-.173-.697c.022.025.552.564.553.563l.195-.831.18.69q.108-.038.217-.073-.153-.573-.301-1.155l-.21.068zm1.331-.2-.212.06-.073-.27.212-.059c.098-.027.152.033.17.098s.002.143-.097.17m-.409-.671.197-.055c.082-.022.144.012.166.091.02.08-.015.139-.098.161l-.197.056zm.514.237a.27.27 0 0 0 .06-.265c-.054-.199-.213-.294-.417-.24q-.213.057-.427.12.15.58.305 1.15.227-.07.452-.131c.204-.057.295-.214.238-.416a.29.29 0 0 0-.211-.218M19.605 4.625l.15-.012q.348.537.705 1.065l-.125.009-.192-.285a15 15 0 0 0-.433.04v.311l-.142.018zm.107.684q.174-.018.346-.031l-.337-.52h-.002zM21.65 4.603l.144.01q.354.55.716 1.092l-.12-.01-.195-.293q-.208-.016-.418-.026l.01.29-.137-.004zm.126.65q.168.009.334.021-.173-.264-.343-.531h-.003zM21.138 4.718s-.484-.335-.716.026c0 0-.109.15-.002.454 0 .002.18.489.698.483 0 0 .214-.018.328-.106l-.173-.511a14 14 0 0 0-.335-.002l.032.098h.237l.114.337c0-.001-.291.175-.562-.027 0 0-.19-.085-.26-.405-.001 0-.059-.395.313-.373 0 0 .205.026.288.12zM19.39 5.787l-.108.015q-.17-.551-.337-1.112l.108-.014q.167.56.338 1.11M18.56 4.748q.134.46.27.916-.451-.402-.895-.802l-.11.023q.16.568.323 1.129l.11-.025q-.134-.46-.266-.925.446.4.9.801L19 5.847q-.168-.555-.333-1.117z" clip-rule="evenodd"></path><path fill="#444B4C" fill-rule="evenodd" d="M18.216 34.82s2.77-2.948 2.847-3.049.412-.444-.174-.46l-6.91-.698-7.288 2.195z" clip-rule="evenodd"></path><path fill="#5F676A" fill-rule="evenodd" d="m17.72 26.917.492 6.86c.02.29-.186.494-.46.453L6.867 32.574c-.274-.041-.528-.282-.566-.534l-.88-5.955c-.038-.253.164-.445.447-.427l11.298.698c.284.018.533.27.554.56" clip-rule="evenodd"></path><path fill="#505859" fill-rule="evenodd" d="m9.143 32.92-2.276-.346c-.274-.041-.528-.282-.566-.534l-.907-5.777c-.038-.252.19-.623.475-.605l5.28.326c.716 1.626 1.69 5.233-2.006 6.936" clip-rule="evenodd"></path><path fill="#fff" fill-rule="evenodd" d="M12.67 29.529c.005-.007.005-.042.004-.05l-.018-.17a.04.04 0 0 0-.013-.023.04.04 0 0 0-.023-.01l-.749-.075a.03.03 0 0 0-.022.006q-.009.008-.007.02v.003q.002.016.017.029c.046.036.09.075.14.14.048.063.052.077.065.078l.074.008.075.714a.04.04 0 0 0 .014.026.04.04 0 0 0 .022.01l.204.023q.014.003.022-.007a.03.03 0 0 0 .007-.02l-.075-.719.24.025q.015.001.023-.008" clip-rule="evenodd"></path><path fill="#fff" fill-rule="evenodd" d="M13.048 30.051a.29.29 0 0 1-.25-.25c-.013-.123.08-.213.205-.2a.29.29 0 0 1 .251.25c.012.124-.08.214-.206.2m.476-.31a.68.68 0 0 0-.275-.34.7.7 0 0 0-.276-.099.5.5 0 0 0-.23.031.1.1 0 0 0-.018.017.05.05 0 0 0-.01.037l.014.135c.004.035-.022.06-.058.057l-.108-.011c-.028-.003-.05.012-.057.036l-.007.03a.554.554 0 0 0 .029.277.64.64 0 0 0 .16.244.7.7 0 0 0 .247.16.6.6 0 0 0 .282.032.43.43 0 0 0 .22-.11.4.4 0 0 0 .115-.215.568.568 0 0 0-.027-.28M10.819 29.803a.295.295 0 0 1-.253-.244c-.014-.12.077-.208.203-.195s.239.122.253.243c.014.122-.077.21-.203.195m1.219.087-.228-.095c-.018-.007-.036-.004-.044.01-.036.06-.11.094-.197.078a.3.3 0 0 1-.155-.086.3.3 0 0 1-.076-.154.64.64 0 0 0-.192-.376l-.005-.005a.68.68 0 0 0-.396-.189c-.218-.022-.391.085-.453.256a.44.44 0 0 0-.022.2c.028.237.22.456.456.538l.01.004q.063.02.126.028a.45.45 0 0 0 .335-.087l.027-.024c.107.106.248.18.396.196q.09.01.166-.008a.39.39 0 0 0 .28-.23c.009-.019-.005-.046-.028-.056" clip-rule="evenodd"></path><path fill="#fff" fill-rule="evenodd" d="M11.54 29.448c.07.007.135.044.182.097.012.014.032.02.047.015l.204-.065c.023-.007.029-.034.013-.056a.69.69 0 0 0-.48-.29.45.45 0 0 0-.338.093.7.7 0 0 1 .186.299c.031-.064.1-.102.185-.093" clip-rule="evenodd"></path><mask id="Octo_Register_svg__e" width="13" height="3" x="6" y="32" maskUnits="userSpaceOnUse" style="mask-type: luminance;"><path fill="#fff" fill-rule="evenodd" d="M6.408 32.543h11.867v2.372H6.408z" clip-rule="evenodd"></path></mask><g mask="url(#Octo_Register_svg__e)"><path fill="#1D2121" fill-rule="evenodd" d="M17.98 34.911 6.771 33.12c-.175-.028-.337-.175-.36-.328l-.002-.017c-.022-.152.103-.254.278-.228l11.243 1.71a.42.42 0 0 1 .342.367l.001.02c.013.175-.12.295-.295.267" clip-rule="evenodd"></path></g><path fill="#000" fill-rule="evenodd" d="M5.679 25.603c-.492.22-.37.812-.299 1.239l.192 1.169.496 3.042.195 1.186c.017.098.166.057.15-.04-.173-1.023-.336-2.047-.503-3.07l-.278-1.703c-.032-.198-.097-.533-.135-.82-.052-.392-.045-.733.26-.87.09-.04.012-.173-.078-.133" clip-rule="evenodd"></path><path fill="#000" fill-rule="evenodd" d="M6.076 31.103c.052.38.09.791.193 1.16.073.256.282.412.54.447.097.014.139-.135.04-.149-.33-.045-.415-.246-.466-.53a26 26 0 0 1-.158-.969c-.014-.098-.163-.056-.15.041M5.786 25.747c2.118.086 4.234.226 6.349.37q1.572.108 3.144.21c.498.031 1.004.04 1.5.098.223.026.547.071.716.231.14.133.161.409.184.585.012.097.167.098.154 0-.028-.222-.053-.508-.217-.68-.175-.185-.503-.245-.743-.279-.858-.12-1.746-.118-2.61-.176-1.79-.119-3.578-.247-5.367-.355a163 163 0 0 0-3.11-.159c-.1-.003-.1.15 0 .155" clip-rule="evenodd"></path><path fill="#000" fill-rule="evenodd" d="M17.679 27.241a134 134 0 0 1 .433 6.563c.007.178.04.35-.168.424-.148.054-.318.017-.461-.033-.094-.033-.134.116-.041.149.36.126.842.07.83-.387-.02-.747-.066-1.495-.108-2.24a134 134 0 0 0-.33-4.476c-.01-.098-.164-.1-.155 0" clip-rule="evenodd"></path><path fill="#000" fill-rule="evenodd" d="M18.124 31.02q1.333.165 2.667.326c.098.013.097-.142 0-.154l-2.667-.326c-.099-.012-.098.143 0 .155" clip-rule="evenodd"></path><path fill="#000" fill-rule="evenodd" d="M20.795 31.346c.093.008.199.019.277.074.062.043.103.125.059.193-.054.084.08.162.133.078.072-.112.04-.256-.048-.35-.106-.114-.274-.137-.42-.15-.1-.008-.1.146 0 .155" clip-rule="evenodd"></path><path fill="#000" fill-rule="evenodd" d="M18.281 34.788c.957-1.06 1.97-2.064 2.971-3.081.07-.071-.04-.18-.11-.11-1 1.017-2.013 2.023-2.97 3.082-.067.073.042.183.109.109M20.944 31.357A36 36 0 0 1 18 34.35c-.024.022.012.058.037.036a36 36 0 0 0 2.942-2.992c.022-.024-.015-.061-.037-.036M18.19 33.393l.965-1.041c.155-.167.34-.329.473-.513.062-.085.055-.175-.055-.21-.113-.035-.244-.038-.36-.054l-.693-.098-.445-.064c-.032-.004-.046.046-.014.05l.916.13.496.07c.015.003.038.002.052.008.036.015.083.073.08.11-.001.038-.102.12-.124.144l-.104.111-.223.242-1 1.079c-.023.024.014.06.037.036" clip-rule="evenodd"></path><path fill="#000" fill-rule="evenodd" d="m18.175 32.824 1.063-1.176c.023-.024-.014-.06-.036-.036l-1.064 1.175c-.022.025.014.061.036.037M18.12 32.254q.334-.311.61-.676c.02-.026-.024-.052-.044-.026a5 5 0 0 1-.603.666c-.024.023.012.06.037.036" clip-rule="evenodd"></path><path fill="#000" fill-rule="evenodd" d="M18.079 31.88c.446.05.888.124 1.333.183.033.005.032-.047 0-.051-.445-.06-.887-.134-1.333-.183-.033-.004-.033.048 0 .051M18.155 32.272l-.022.004c-.031.005-.02.047.007.05.31.032.619.079.93.106.033.003.032-.048 0-.05-.311-.029-.62-.075-.93-.107l.007.05.022-.003c.032-.005.019-.055-.014-.05M18.11 32.743c.2.026.398.05.598.06.033.002.033-.05 0-.051-.2-.01-.399-.035-.598-.06-.032-.005-.032.047 0 .05" clip-rule="evenodd"></path><path fill="#EE3D41" fill-rule="evenodd" d="M6.805 29.628c-.204.26-.542.343-.85.412-.321.07-.659.167-.992.153-.633-.027-1.033-.561-.815-1.165.121-.335.25-.69.422-1.004.067-.123.148-.242.25-.34a1 1 0 0 1 .146-.1 1 1 0 0 1 .302-.3.1.1 0 0 1 .04-.017l.143-.11.035.204c.048.312.116.81.116.81-.03.115-.026.119.101.203.038.026.072.044.103.064.154.029.297.143.45.165.042-.015.06-.013.13-.004a.14.14 0 0 1 .088.052q.14.03.256.105.113.072.179.201c.107.22.041.486-.104.67" clip-rule="evenodd"></path><path fill="#CD202C" fill-rule="evenodd" d="M6.805 29.628c-.204.26-.542.343-.85.412-.321.07-.659.167-.992.153-.633-.027-1.033-.561-.815-1.165.121-.335.25-.69.422-1.004.067-.123.148-.242.25-.34a1 1 0 0 1 .146-.1 1 1 0 0 1 .302-.3.1.1 0 0 1 .04-.017l.143-.11.035.204s-1.053 1.165-.538 1.448 1.554.112 1.782-.053q.113.072.179.201c.107.22.041.486-.104.67" clip-rule="evenodd"></path><path fill="#000" fill-rule="evenodd" d="M5.388 27.052c-.475.383-.894.855-1.145 1.415-.194.434-.421 1.193-.024 1.582.182.177.454.218.698.226.33.01.662-.036.978-.133.298-.093.594-.23.846-.416.191-.143.372-.348.34-.604-.031-.268-.274-.451-.507-.55-.324-.136-.706-.126-.984-.365-.057-.049-.139.033-.082.082.373.321.932.229 1.296.56.553.503-.394.984-.786 1.129a3 3 0 0 1-.858.178c-.256.014-.562.018-.784-.13-.468-.312-.202-1.14-.013-1.545.249-.533.652-.98 1.107-1.347.058-.047-.024-.128-.082-.082" clip-rule="evenodd"></path></svg>