<svg xmlns="http://www.w3.org/2000/svg" width="131" height="107" fill="none"><path fill="#EE3D41" fill-rule="evenodd" d="M21.792 81.817c2.964 1.564 5.582 3.746 8.186 5.903H.26a9.8 9.8 0 0 1 .88-2.06c.36-.643.782-1.261 1.278-1.819 2.295-2.606 5.755-4.097 9.253-4.34.223-.012.434-.024.657-.024 3.287-.097 6.574.8 9.464 2.34" clip-rule="evenodd"></path><path fill="#CD202C" fill-rule="evenodd" d="M12.355 79.464s-.012.012-.025.012c-.124.085-.248.17-.384.242-.472.28-.955.51-1.228.643-1.873.933-3.672 2.06-5.123 3.564a11 11 0 0 0-2.419 3.794H.25c.211-.715.521-1.406.893-2.06.36-.643.782-1.261 1.278-1.819 2.295-2.606 5.755-4.097 9.253-4.34z" clip-rule="evenodd"></path><path fill="#000" fill-rule="evenodd" d="m29.917 87.357.447.364h-.757c-2.493-2.061-5.06-4.195-7.926-5.698-3.051-1.6-6.276-2.4-9.315-2.315-.136 0-.285 0-.421.012-.087 0-.162.012-.249.012-3.621.255-6.933 1.819-9.091 4.267a10.5 10.5 0 0 0-2.096 3.722H0a10.75 10.75 0 0 1 2.245-4.025c2.233-2.558 5.668-4.17 9.414-4.437l.682-.036c3.139-.085 6.45.74 9.563 2.376 2.915 1.54 5.508 3.685 8.013 5.758" clip-rule="evenodd"></path><path fill="#EE3D41" fill-rule="evenodd" d="M117.47 60.448c-4.279 2.037-7.157 6.086-8.98 10.45-.025.073-.062.133-.074.206a.6.6 0 0 0-.075.194c-.149.327-.273.667-.384.994-.05.121-.1.242-.137.364-.657 1.878-1.153 3.794-1.625 5.733-.086.352-.173.716-.26 1.08l-.075.29c-.049.243-.111.485-.161.728a240 240 0 0 1-.756 3.14l-.013.011v.037a3 3 0 0 1-.087.388c-.012.06-.024.12-.049.17a1 1 0 0 1-.05.193 50 50 0 0 1-.955 3.298H93.407c.249-.63.46-1.261.658-1.88.347-1.102.707-2.218 1.067-3.32.024-.086.062-.183.099-.267a2 2 0 0 1 .087-.28c.384-1.2.793-2.387 1.24-3.563.322-.91.67-1.806 1.03-2.704 0-.012.012-.012.012-.024a51 51 0 0 1 2.12-4.546c.063-.109.112-.206.174-.303.05-.097.1-.194.149-.279.434-.775.893-1.54 1.389-2.29 3.523-5.334 8.956-9.82 15.381-10.693.025-.012.062-.012.099-.012.149 0 .298-.024.434-.024.211 0 .422.012.62.049q.149.018.298.072c.285.073.533.194.707.4.037.037.074.073.087.11a.25.25 0 0 1 .074.12.7.7 0 0 1 .075.231l.012.024c.174.91-.881 1.503-1.737 1.903z" clip-rule="evenodd"></path><path fill="#F26F5C" fill-rule="evenodd" d="M117.475 60.443c-4.279 2.037-7.156 6.085-8.98 10.45-.025.072-.062.133-.074.206a.7.7 0 0 0-.075.194c-.148.327-.272.666-.384.994-.05.12-.099.242-.137.363-.657 1.88-1.153 3.794-1.624 5.734-.087.352-.174.715-.261 1.079l-.074.29c-.05.243-.112.486-.161.728a257 257 0 0 1-.757 3.14l-.013.012v.036a3 3 0 0 1-.086.388c-.013.06-.025.122-.05.17a1 1 0 0 1-.05.194 50 50 0 0 1-.955 3.297h-2.518q.41-1.09.745-2.182l.074-.218c.025-.085.05-.17.075-.242.297-1.006.582-2.025.843-3.043.099-.327.186-.667.26-1.006.186-.691.373-1.394.546-2.085.05-.17.087-.34.137-.497.037-.146.074-.28.111-.425.037-.181.087-.351.149-.533.099-.412.211-.812.323-1.224a57 57 0 0 1 1.339-4.195q.261-.708.558-1.418c.025-.073.05-.133.075-.206.037-.06.062-.133.087-.194.781-1.818 1.711-3.564 2.89-5.164 2.344-3.212 5.767-5.83 9.724-6.57h.012v.024c.174.909-.88 1.503-1.736 1.903z" clip-rule="evenodd"></path><path fill="#CD202C" fill-rule="evenodd" d="M116.901 57.568c-.397.23-.819.375-1.117.485-1.451.497-2.828 1.054-4.118 1.879a18.8 18.8 0 0 0-3.981 3.382c-1.774 1.963-3.175 4.218-4.329 6.594-.037.073-.062.133-.099.206a2 2 0 0 0-.099.23c-.348.716-.67 1.443-.98 2.183-.224.545-.434 1.09-.645 1.636-1.228 3.249-2.233 6.583-3.486 9.831-.074.194-.148.388-.223.57a1 1 0 0 1-.087.194c-.012.085-.05.158-.074.218-.124.315-.248.63-.385.946-.26.606-.52 1.212-.818 1.806h-3.064c.248-.63.459-1.26.657-1.879.348-1.103.707-2.218 1.067-3.322.025-.084.062-.181.1-.266.024-.097.049-.194.086-.279.385-1.2.794-2.388 1.24-3.564.323-.91.67-1.806 1.03-2.703 0-.012.013-.012.013-.025a51 51 0 0 1 2.12-4.545c.063-.11.112-.206.174-.303.05-.097.1-.194.149-.28.434-.775.893-1.539 1.389-2.29 3.523-5.334 8.955-9.82 15.38-10.692.025-.012.062-.012.1-.012" clip-rule="evenodd"></path><path stroke="#000" stroke-width="0.581" d="M93.396 87.723c.248-.63.459-1.26.657-1.879.348-1.103.707-2.218 1.067-3.321.025-.085.062-.182.1-.267.024-.097.049-.194.086-.279.385-1.2.794-2.388 1.24-3.564.323-.909.67-1.806 1.03-2.703 0-.012.012-.012.012-.024a51 51 0 0 1 2.121-4.546c.062-.11.112-.206.174-.303.05-.097.1-.194.149-.279.434-.776.893-1.54 1.389-2.291 3.523-5.334 8.955-9.82 15.38-10.692.025-.012.062-.012.099-.012h.038c.124-.012.26-.012.397-.012.21 0 .421.012.62.048q.148.018.297.073c.286.073.534.206.707.4a.3.3 0 0 1 .087.11.26.26 0 0 1 .075.12.7.7 0 0 1 .086.23v.025c.174.91-.88 1.503-1.736 1.903-4.279 2.037-7.157 6.086-8.98 10.45-.025.072-.062.133-.074.206a.6.6 0 0 0-.075.194c-.149.327-.273.666-.384.994-.05.12-.1.242-.137.363-.657 1.88-1.153 3.795-1.625 5.734-.087.352-.173.715-.26 1.079l-.075.291c-.049.242-.111.485-.161.727a239 239 0 0 1-.756 3.14l-.013.012v.036a3 3 0 0 1-.087.388.7.7 0 0 1-.049.17 1 1 0 0 1-.05.194 50 50 0 0 1-.955 3.297"></path><path fill="#EE3D41" fill-rule="evenodd" d="M101.012 47.712c0 .545-.012 1.091-.037 1.649-.149 4.436-.943 9.237-2.592 14.328-.124.376-.248.764-.385 1.152a63 63 0 0 1-2.381 5.891c-2.022 4.425-4.689 9.02-8.112 13.76-.447.617-.819 1.26-1.08 2.096a1 1 0 0 0-.061.194 8 8 0 0 0-.26 1.188c-.025.049-.063.085-.088.121-.062.073-.111.158-.173.23-.087.11-.211.122-.323.098-.136-.049-.235-.194-.124-.34.087-.121.186-.242.26-.351h-8.26a7.8 7.8 0 0 1-.98 1.467c-.025-.097-.062-.194-.087-.291-.012.024-.037.036-.05.06a.6.6 0 0 1-.148.17 2 2 0 0 0-.1-.279c-.061.085-.123.17-.198.242a5 5 0 0 0-.186-.496 6.4 6.4 0 0 0-.434-.873H42.332c.483-.97.67-1.916.322-2.728 0-.024-.012-.036-.025-.06-.198-.437-.545-.825-1.079-1.188-.012 0-.012-.012-.024-.025a7 7 0 0 0-1.588-.703c-.037-.036-.075-.073-.124-.109-.285-.267-.583-.533-.893-.812-.509-.449-1.042-.91-1.588-1.382-4.167-3.624-8.037-7.722-10.878-12.316-.322-.51-.62-1.03-.905-1.552a33 33 0 0 1-1.898-4.049 27 27 0 0 1-1.079-3.406 28 28 0 0 1-.533-2.667 47 47 0 0 1-.348-3.225l-.074-1.43c0-.17 0-.34-.012-.51v-.035a36 36 0 0 1 .05-3.067c.371-8.195 3.038-16.256 7.863-22.936a40 40 0 0 1 5.321-6c.236-.23.471-.449.72-.643a32 32 0 0 1 2.331-1.927c.422-.328.856-.643 1.29-.934a37 37 0 0 1 3.56-2.267c.012-.012.025-.024.037-.024 4.465-2.51 9.402-4.182 14.525-4.837 4.887-.618 9.848-.254 14.598.97.174.036.335.073.497.121.421.121.855.243 1.277.376.161.049.335.097.496.158.633.194 1.265.412 1.886.654.173.06.347.121.508.194.347.134.695.267 1.042.412l.67.291c.446.194.893.4 1.34.63.21.086.409.195.607.304.831.412 1.65.86 2.444 1.333h.012c.223.134.446.279.67.412h.012a38.4 38.4 0 0 1 5.991 4.595c.124.121.26.242.385.363.148.146.297.28.446.425l.595.618.484.51h.013c.173.193.335.375.496.569a34 34 0 0 1 2.145 2.643c.162.218.323.436.472.666.012 0 .012.012.012.012.211.303.422.619.62.946.087.133.174.267.26.412 0 .012 0 .024.026.036 0 0 0 .012.025.025.074.12.148.254.223.388.36.593.694 1.212 1.03 1.842.024.024.036.049.049.073.1.194.198.376.273.582 0 .012.012.012.012.012.062.121.124.254.186.388h.013s.024.06.037.085c.074.145.149.29.21.448.038.06.063.134.088.206 0 .024.037.049.037.073.012.036.025.085.05.121.148.34.297.691.446 1.043.21.485.397.97.57 1.479.137.363.273.74.385 1.115.037.097.074.206.111.303v.024s.038.11.05.158c.037.121.075.23.112.351.087.267.161.534.235.8.013.025.013.037.025.061.013.06.025.121.05.182.012.06.037.133.05.206.05.182.099.376.148.57a20 20 0 0 1 .36 1.563.3.3 0 0 1 .037.146c.025.073.037.157.05.242.111.546.211 1.091.297 1.649.087.546.174 1.115.236 1.685.075.57.137 1.14.174 1.733l.037.364v.522s.012.096.012.157c.025.194.025.388.038.594.024.643.037 1.31.037 1.976z" clip-rule="evenodd"></path><path fill="#CD202C" fill-rule="evenodd" d="M97.986 31.832a3 3 0 0 0-.26-.158 1 1 0 0 0-.2-.133c-.036-.024-.086-.06-.135-.073-.125-.085-.249-.17-.373-.242a6 6 0 0 1-.21-.134c-4.416-2.594-9.514-4.024-14.71-4.57-.187-.024-.36-.048-.534-.06-.174-.013-.335-.037-.496-.049l-.521-.036a47 47 0 0 0-4.317-.134c-8.223.11-16.298 2-24.286 3.88-4.39 1.03-8.943 2.145-12.403 4.958-4.006 3.272-6.003 8.46-6.251 13.564s1.066 10.159 2.753 14.984c1.303 3.745 2.89 7.382 4.701 10.922a107 107 0 0 0 2.828 5.224c.918 1.613 1.724 3.322 2.741 4.861.41.643.856 1.261 1.315 1.855 0 0 .459.437.72 1.237h-6.835a9.4 9.4 0 0 0 .67-1.819l.273-.279c-.087-.096-.174-.206-.273-.302a1 1 0 0 0-.1-.122 30 30 0 0 0-2.145-2.182c-.037-.036-.075-.073-.124-.109-.285-.267-.583-.533-.893-.812-.509-.449-1.042-.91-1.588-1.382-4.167-3.625-8.037-7.722-10.878-12.316a28 28 0 0 1-.905-1.552 33 33 0 0 1-1.898-4.049 32 32 0 0 1-1.079-3.406c-.21-.873-.384-1.77-.52-2.667a47 47 0 0 1-.348-3.225c-.037-.472-.062-.957-.087-1.43 0-.17 0-.34-.012-.51a37 37 0 0 1 .05-3.102s-.013 0 0-.013c.371-8.182 3.038-16.243 7.863-22.923a40 40 0 0 1 5.321-6c.236-.23.471-.449.72-.643a32 32 0 0 1 2.331-1.927c.422-.328.856-.643 1.29-.934a38 38 0 0 1 3.597-2.29c4.465-2.51 9.402-4.183 14.525-4.838 4.887-.618 9.848-.254 14.599.97.173.036.334.073.496.121.421.121.855.243 1.277.376.161.049.335.097.496.158.633.194 1.265.412 1.886.654.173.06.347.121.508.194.347.134.695.267 1.042.412l.67.291c.446.194.893.4 1.34.63.21.086.409.195.607.304.831.412 1.65.86 2.444 1.333h.012c.223.134.446.279.67.412a38.5 38.5 0 0 1 6.003 4.595c.124.121.26.242.385.363.148.146.297.28.446.425l.595.618.484.51c.174.18.347.375.509.569a34 34 0 0 1 2.145 2.643c.162.218.323.436.472.666.012 0 .012.012.012.012.211.303.422.619.62.946.087.133.174.279.26.424 0 0 .026.012.026.024.087.134.16.28.248.413.36.593.694 1.212 1.03 1.842.012.037.024.06.037.085.099.194.198.376.285.57 0 .012.012.012.012.012.062.121.124.254.186.388.087.17.161.351.248.533.038.06.062.134.1.206 0 .024.037.049.037.073.012.036.025.085.05.121.148.34.297.691.446 1.043" clip-rule="evenodd"></path><path fill="#000" fill-rule="evenodd" d="M42.012 85.45c-.658-.896-1.799-1.83-3.101-2.897a83 83 0 0 1-1.836-1.527c-9.154-7.952-14.202-15.88-15.417-24.232-1.625-11.104 1.128-22.584 7.54-31.482 6.575-9.116 17.068-15.408 28.07-16.802 6.871-.872 14.016.158 20.664 2.995 6.648 2.824 12.292 7.237 16.323 12.752 1.6 2.194 2.989 4.692 4.118 7.443.198.485.397.982.583 1.491l-.757.267a40 40 0 0 0-.57-1.455c-1.104-2.69-2.456-5.14-4.02-7.273C85.598 13.771 71.037 7.565 57.38 9.31c-10.778 1.37-21.073 7.528-27.51 16.475-6.301 8.74-8.993 20.001-7.405 30.912 1.19 8.158 6.152 15.928 15.157 23.747.62.546 1.228 1.043 1.81 1.515 1.353 1.104 2.531 2.061 3.25 3.055l-.657.46z" clip-rule="evenodd"></path><path fill="#fff" fill-rule="evenodd" d="M21.892 53.157c1.935-8.995 5.694-14.959 13.582-20.05 7.901-5.092 25.923-11.48 45.347-11.844 5.792-.109 14.86 2.716 16.46 8.728-3.424-10.267-8.596-19.783-17.973-24.947C69.943-.108 58.234-.981 48.076 2.462 37.917 5.904 29.434 13.529 24.844 22.936c-4.589 9.42-4.329 23.481-2.94 30.221z" clip-rule="evenodd"></path><path fill="#C4C4C2" fill-rule="evenodd" d="M42.45 29.46c-2.79 1.225-5.16 2.474-6.983 3.637-7.901 5.092-11.647 11.056-13.582 20.05-1.377-6.74-1.65-20.801 2.952-30.22C28.46 15.496 34.512 9.18 41.892 5.156c-2.53 1.551-4.54 3.94-4.49 7.6.05 4.352 2.282 12.644 5.048 16.705" clip-rule="evenodd"></path><path fill="#000" fill-rule="evenodd" d="M97.351 28.94s-.012-.036-.025-.06c0-.024-.024-.049-.037-.073a61 61 0 0 0-1.5-4.012c-.162-.388-.323-.764-.472-1.14-.136-.315-.273-.618-.41-.921a68 68 0 0 0-1.277-2.655c-.087-.145-.161-.29-.236-.436-.062-.134-.136-.267-.198-.388-3.622-6.74-8.075-11.468-13.68-14.547C70.137-.456 58.33-1.438 47.935 2.09a37 37 0 0 0-4.031 1.612c-.732.351-1.476.715-2.208 1.115a40 40 0 0 0-3.981 2.485c-5.644 3.964-10.258 9.334-13.247 15.468-4.354 8.947-4.366 21.663-3.275 28.79v.073c.087.57.199 1.116.298 1.6.025.11.1.207.198.267h.013s.111.049.186.049a.38.38 0 0 0 .223-.073.36.36 0 0 0 .174-.242c1.96-9.153 5.817-14.887 13.309-19.723.037-.025.062-.049.099-.073.149-.097.297-.194.459-.291.21-.133.434-.267.657-.388 1.65-.982 3.634-1.988 5.805-2.933 8.856-3.88 19.697-6.607 30.19-7.662a69 69 0 0 1 2.691-.242c.013.012.013 0 .025 0a37 37 0 0 1 1.613-.11c.372-.024.744-.048 1.116-.06.025 0 .05-.012.074-.012.844-.024 1.675-.06 2.506-.073h.347c.88 0 1.848.073 2.865.218.224.037.434.061.658.097.223.049.446.085.67.134.148.024.297.06.446.085.012.012.025.012.037.012 1.352.29 2.729.703 4.031 1.248 1.948.8 3.746 1.891 5.06 3.273.646.68 1.167 1.419 1.539 2.243.037.085.074.157.112.242l.024.037c.038.085.1.133.186.17a.24.24 0 0 0 .1.024c0 .012.012.012.012.012.062 0 .124 0 .186-.024h.013a.26.26 0 0 0 .16-.134.33.33 0 0 0 .075-.363M94.4 25.147s0-.012-.012-.012a13 13 0 0 0-1.067-.776 17.8 17.8 0 0 0-3.039-1.612 22.4 22.4 0 0 0-3.448-1.127 19 19 0 0 0-.806-.194c-.26-.06-.509-.11-.77-.146-.88-.17-1.76-.29-2.616-.34a16 16 0 0 0-1.824-.072c-.074 0-.136 0-.21.012h-.013s-.012-.012-.025 0c-.36 0-.731 0-1.103.024-.422.013-.844.037-1.278.049-.248 0-.484.024-.732.048h-.012s-.013-.012-.025 0c-1.129.061-2.27.134-3.423.243-7.926.715-16.112 2.376-23.554 4.776a96 96 0 0 0-6.339 2.303c-.632.303-1.24.594-1.81.897-.025-.036-.05-.06-.063-.097a69 69 0 0 0-3.398 1.6c-.248.134-.484.255-.72.376a53 53 0 0 0-2.53 1.455 6 6 0 0 0-.347.23c-7.12 4.595-11.076 9.965-13.222 18.147v.025s-.05.109-.062.181a40 40 0 0 1-.298-2.678 52 52 0 0 1-.186-2.898v-.024c-.273-7.128.608-16.026 3.734-22.426 2.493-5.128 6.164-9.71 10.617-13.371l.012-.012a39 39 0 0 1 2.419-1.83c.459-.328.93-.631 1.401-.934.794-.51 1.613-.994 2.444-1.455q1.08-.582 2.158-1.09a41 41 0 0 1 3.944-1.589C52.24 1.46 56.494.793 60.736.793c6.438 0 12.85 1.551 18.382 4.606 5.358 2.946 9.65 7.443 13.16 13.844.075.12.137.254.211.388l.223.436c.31.558.596 1.14.868 1.733.112.219.211.437.31.655.125.255.236.497.335.752.397.86.782 1.757 1.142 2.69.012.013.012.025.024.037.013.049.038.11.063.17-.335-.34-.683-.667-1.055-.958" clip-rule="evenodd"></path><path fill="#000" fill-rule="evenodd" d="M97.294 30.401a.41.41 0 0 1-.385-.266c-.1-.316-.21-.619-.31-.922a.39.39 0 0 1 .236-.497.42.42 0 0 1 .52.219q.206.49.335.982a.4.4 0 0 1-.272.484c-.038 0-.075.012-.112.012zM38.593 31.604a.41.41 0 0 1-.372-.242c-.782-1.83-7.48-18.062-.496-24.039a.415.415 0 0 1 .57.037.393.393 0 0 1-.037.557c-2.48 2.122-3.374 5.964-2.642 11.395.707 5.298 2.741 10.328 3.349 11.747a.39.39 0 0 1-.211.52.35.35 0 0 1-.161.037z" clip-rule="evenodd"></path><path fill="#fff" fill-rule="evenodd" d="M79.164 21.154c-21.681 4.255-34.692 12.692-43.685 11.953 2.568-1.794 23.083-14.365 43.685-11.953" clip-rule="evenodd"></path><path fill="#000" fill-rule="evenodd" d="M79.544 21.074c0-.073-.038-.121-.075-.17a.42.42 0 0 0-.26-.133c-.025 0-.062-.012-.087-.012-8.72-1.006-18.382.473-28.714 4.424a89 89 0 0 0-8.335 3.686c-1.228.63-2.332 1.224-3.287 1.745-.248.146-.484.279-.707.412a45 45 0 0 0-2.493 1.528 6 6 0 0 0-.347.23.38.38 0 0 0-.15.424c.013.037.026.073.05.11.013 0 .013.012.013.012a.42.42 0 0 0 .297.17c.05 0 .1.011.15.011.334.025.669.037 1.016.037 4.503 0 9.96-1.964 16.708-4.389 6.462-2.327 14.413-5.188 24.062-7.224.162-.037.323-.073.484-.097.124-.025.26-.049.385-.085.024 0 .05-.012.074-.012.037 0 .087-.012.136-.025.249-.06.521-.12.782-.17a.38.38 0 0 0 .285-.242c.013-.012.012-.024.012-.048.025-.037.025-.073.025-.11 0-.024 0-.048-.025-.072M53.05 28.408c-6.586 2.376-11.92 4.291-16.236 4.352h-.075q.801-.51 2.01-1.2c.037-.012.062-.037.099-.06a87 87 0 0 1 4.986-2.607c.037-.012.062-.037.1-.049a89 89 0 0 1 6.511-2.824c.087-.024.174-.06.26-.097 8.15-3.116 15.865-4.68 23.021-4.68H74a41 41 0 0 1 2.444.073c-.286.061-.57.122-.844.194-.955.206-1.873.437-2.79.655-7.74 1.927-14.277 4.28-19.76 6.243" clip-rule="evenodd"></path><path fill="#C1C3C3" fill-rule="evenodd" d="M77.41 21.554c4.565-1.333 18.928 1.552 21.967 14.583 3.225 0 6.772-3.09 8-6.012 2.183-5.164-3.671-14.486-29.966-8.57" clip-rule="evenodd"></path><path fill="#000" fill-rule="evenodd" d="M106.511 23.762c-1.303-1.515-3.994-3.479-9.427-4.218a32 32 0 0 0-3.882-.291c-.15 0-.31-.012-.472 0-.148-.012-.297-.012-.446-.012-.77 0-1.55.024-2.37.06h-.012l-.545.037-.57.036c-2.953.206-6.178.667-9.663 1.382-.31.06-.62.121-.93.194h-.062c-.112.012-.211.036-.31.06h-.013c-.186.037-.347.085-.508.134a.38.38 0 0 0-.273.254.23.23 0 0 0 0 .182c-.013.012 0 .024 0 .037a.37.37 0 0 0 .124.181c.05.073.148.11.248.122.037 0 .074 0 .111-.013a3 3 0 0 1 .373-.084c.123-.025.26-.049.384-.085.025 0 .05-.012.074-.012.038 0 .087-.013.137-.025a11.5 11.5 0 0 1 2.679-.048c.012-.012.025 0 .037 0 .831.073 1.7.218 2.543.412.186.036.372.085.558.133l.558.146a28 28 0 0 1 2.17.703c.336.133.658.255.968.4.757.315 1.44.642 2.022.97.05.024.087.048.124.072 1.203.691 2.555 1.613 3.833 2.837q.038.018.074.073c.025.012.05.048.075.085a17.3 17.3 0 0 1 2.914 3.721 17.8 17.8 0 0 1 1.625 3.758c.013.024.013.036.025.06.112.389.223.777.31 1.177 0 .012.013.024.025.036v.024c.062.146.21.243.372.243h.062s.087 0 .136-.013h.013c.124 0 .248 0 .372-.024 3.25-.315 6.599-3.37 7.802-6.219.893-2.133.434-4.558-1.253-6.497zm-7.046 11.14a19 19 0 0 0-.459-1.406v-.024c-.05-.109-.086-.194-.136-.29-.124-.328-.26-.631-.41-.934-.31-.68-.644-1.31-1.016-1.891-.087-.146-.174-.291-.286-.425 0-.024-.024-.048-.037-.072h-.012a2.7 2.7 0 0 0-.298-.437c-.062-.109-.149-.218-.223-.315-.037-.048-.062-.097-.1-.133a11 11 0 0 0-.756-.922l-.025-.024s0-.012-.012-.024a14 14 0 0 0-.57-.63c-.063-.061-.112-.134-.187-.194a19.8 19.8 0 0 0-4.403-3.37c-.013-.012-.025-.012-.025-.012a22.505 22.505 0 0 0-4.502-1.952c-.1-.037-.199-.06-.298-.085l-.025-.012c-.087-.024-.198-.06-.285-.085-.21-.06-.422-.121-.633-.17-.88-.23-1.736-.388-2.542-.497.136-.024.273-.048.421-.06 2.134-.352 4.528-.655 6.971-.788.199-.012.385-.025.57-.025.187 0 .36-.024.534-.024.67-.036 1.327-.048 1.997-.036.149 0 .298 0 .447.012h.47c4.987.145 9.688 1.212 12.268 4.194 1.476 1.71 1.885 3.83 1.104 5.686-1.104 2.642-4.329 5.564-7.306 5.758a16 16 0 0 0-.236-.812" clip-rule="evenodd"></path><path fill="#000" fill-rule="evenodd" d="M80.918 25.87c-.186.473.41.86.769.497 1.6-1.649 3.808-3.006 6.078-2.934 2.877.085 8.36 3.516 11.287 11.468.037-3.03-.98-7.843-2.828-10.219-2.158-2.776-5.172-4.134-8.695-3.612-2.816.412-5.594 2.279-6.611 4.8" clip-rule="evenodd"></path><path fill="#000" fill-rule="evenodd" d="M96.549 24.446a12 12 0 0 0-1.638-1.71 9 9 0 0 0-.694-.521c-.211-.145-.422-.279-.633-.412a9.3 9.3 0 0 0-2.084-.885h-.012c-.236-.073-.471-.121-.707-.17a6 6 0 0 0-.682-.109 9.6 9.6 0 0 0-2.63.036c-.756.11-1.5.316-2.207.607-.174.072-.335.145-.497.218-.037.024-.074.036-.124.073h-.012c-.136.06-.26.12-.397.206a.7.7 0 0 0-.186.109 1.7 1.7 0 0 0-.323.194c-1.45.92-2.592 2.194-3.187 3.648a.83.83 0 0 0 .012.643.865.865 0 0 0 1.427.267c.037-.037.074-.085.124-.122 1.76-1.77 3.807-2.751 5.656-2.69.645.024 1.401.217 2.245.605 1.228.558 2.604 1.516 3.956 2.91q.037.018.075.072c.024.013.05.049.074.085.955.982 1.873 2.182 2.704 3.589a24 24 0 0 1 1.836 3.89c.012.025.012.037.025.061 0 0 .037.073.062.11a.39.39 0 0 0 .322.145h.062s.025 0 .037-.012c.025 0 .05 0 .062-.024a.4.4 0 0 0 .248-.352c.05-4.134-1.438-8.558-2.914-10.461m-8.956-1.407c-.198 0-.384.012-.583.024-1.897.195-3.907 1.261-5.618 3.031 0 .024-.038.037-.075.012-.025-.024-.037-.036-.037-.048 0-.024.012-.024.012-.037.608-1.49 1.923-2.812 3.548-3.66.173-.085.347-.17.533-.243a.1.1 0 0 1 .05-.024h.012c.186-.085.372-.17.57-.243 0 0 .026 0 .05-.012.248-.085.521-.17.782-.218.248-.073.496-.121.756-.158 1.203-.181 2.345-.133 3.424.134h.012c.248.06.496.133.744.23.286.097.559.206.831.352h.013l.012.012c.57.254 1.08.606 1.6 1.018.26.206.509.424.744.667.286.278.558.594.819.921.037.036.074.085.112.133 1.215 1.552 2.083 4.292 2.493 6.837.024.182.05.328.062.485.025.11.037.206.05.315a21 21 0 0 0-1.018-1.903c0-.024-.025-.048-.037-.073a1 1 0 0 0-.124-.206c-.223-.351-.434-.703-.67-1.018-.012 0-.012-.012-.012-.012 0-.012-.013-.012-.013-.024-.248-.388-.52-.752-.806-1.091h-.012s-.013-.037-.025-.049c-.21-.278-.434-.557-.67-.812-.062-.06-.111-.133-.186-.194-1.476-1.624-3.026-2.715-4.403-3.37-.012-.012-.025-.012-.025-.012-.868-.424-1.674-.655-2.344-.727a2 2 0 0 0-.385-.037zM54.367 33.789c-5.259-1.103-11.026.521-14.884 4.182-.136 1.127.186 2.376.819 3.322 2.852-4.68 8.496-7.625 14.053-7.504z" clip-rule="evenodd"></path><path fill="#000" fill-rule="evenodd" d="M54.518 33.412s-.1-.036-.161-.048a17.3 17.3 0 0 0-7.281.121c-2.94.691-5.68 2.11-7.876 4.194a.4.4 0 0 0-.112.23c-.111.874.037 1.807.397 2.656.062.181.149.351.236.52.074.146.161.28.248.413h.012v.024a.46.46 0 0 0 .335.158.48.48 0 0 0 .347-.194c2.717-4.473 8.174-7.395 13.607-7.31h.087a.39.39 0 0 0 .384-.267.2.2 0 0 0 .025-.084.39.39 0 0 0-.248-.413m-14.004 6.85c-.074.072-.123.157-.186.242a2 2 0 0 1-.173-.436 2.5 2.5 0 0 1-.174-.57 4.3 4.3 0 0 1-.111-1.358c.781-.727 1.65-1.37 2.58-1.915.545-.34 1.128-.643 1.736-.897.012 0 .025-.012.037-.012a16.3 16.3 0 0 1 2.803-.97c.013-.012.025-.012.05-.024a17 17 0 0 1 3.014-.449c-3.858.958-7.368 3.261-9.576 6.389M89.704 32.56c2.89-.484 5.966.291 8.26 2.073-.359 1.08-.508 2.267-.867 3.346-1.737-2.63-4.726-4.752-7.84-5.491.174.073.274 0 .447.073" clip-rule="evenodd"></path><path fill="#000" fill-rule="evenodd" d="M98.214 34.322c-2.159-1.685-5-2.497-7.74-2.254h-.013c-.248.024-.483.048-.72.084-.061-.024-.123-.024-.185-.024h-.1s-.074-.024-.111-.024a.39.39 0 0 0-.385.121.25.25 0 0 0-.086.133.34.34 0 0 0 .025.291.46.46 0 0 0 .198.206c.087.025.161.049.223.061a.4.4 0 0 0 .112.024c2.89.752 5.668 2.752 7.33 5.25a.41.41 0 0 0 .335.181c.013 0 .037 0 .05-.012a.38.38 0 0 0 .335-.267c.062-.194.124-.375.173-.57.05-.206.1-.387.15-.581.036-.182.086-.376.123-.558.124-.546.248-1.115.422-1.637a.375.375 0 0 0-.136-.424m-1.08 1.891c-.025.097-.037.194-.062.291-.05.194-.087.376-.136.558 0-.012-.025-.024-.025-.024-1.265-1.649-3.002-3.043-4.887-3.976L92 33.049c-.173-.084-.347-.17-.52-.242.47 0 .93.036 1.389.121h.024a8.4 8.4 0 0 1 1.55.34c1.092.327 2.134.836 3.052 1.503-.112.4-.21.812-.31 1.212 0 .085-.037.158-.05.23" clip-rule="evenodd"></path><path fill="#fff" fill-rule="evenodd" d="M61.453 40.541c-1.141-3.091-3.709-5.564-6.773-6.643-4.13-1.455-9.079-.29-12.242 2.885-3.15 3.176-4.366 8.207-2.989 12.45s5.26 7.48 9.613 8.013 8.967-1.661 11.41-5.431c2.444-3.77 2.593-8.934.373-12.777l.595 1.503z" clip-rule="evenodd"></path><path fill="#000" fill-rule="evenodd" d="M61.206 38.834a.34.34 0 0 0-.187-.158 11.72 11.72 0 0 0-6.201-5.164 2 2 0 0 0-.31-.097.6.6 0 0 0-.162-.049c-2.356-.727-4.924-.642-7.28.122a12.8 12.8 0 0 0-2.94 1.406c-.595.388-1.166.836-1.687 1.333-.099.085-.186.17-.285.267A12.2 12.2 0 0 0 39.97 39.5c-.1.17-.186.352-.273.534-.074.181-.149.351-.223.533-1.129 2.764-1.327 5.928-.41 8.764 1.427 4.4 5.42 7.735 9.96 8.292.447.06.918.085 1.377.085.72 0 1.439-.073 2.146-.206a12.7 12.7 0 0 0 6.19-3.055c.793-.715 1.5-1.527 2.083-2.436 2.53-3.904 2.68-9.201.385-13.177M60.089 51.67s-.012.024-.024.037c-.211.303-.435.606-.658.884h-.012c-.385.473-.782.898-1.228 1.285a11.95 11.95 0 0 1-5.21 2.728h-.025s-.012.012-.024.012c-.112.024-.248.049-.348.085h-.012a12 12 0 0 1-1.985.206c-.012.012-.024 0-.024 0a9 9 0 0 1-1.414-.073h-.013c-4.23-.521-7.938-3.624-9.278-7.734-.78-2.448-.694-5.14.137-7.576.062-.17.124-.34.186-.497.1-.255.21-.51.347-.764a11.2 11.2 0 0 1 2.233-3.225c1.203-1.212 2.691-2.12 4.28-2.69.011-.013.024-.013.049-.025a11.8 11.8 0 0 1 3.882-.667c.657 0 1.302.061 1.935.17.471.085.93.194 1.377.352.099.024.186.048.285.084 3.002 1.055 5.445 3.455 6.524 6.401.037.11.124.182.211.23 1.005 2.692.992 5.759-.037 8.474a10.6 10.6 0 0 1-1.104 2.218c-.025.025-.037.06-.05.085" clip-rule="evenodd"></path><path fill="#fff" fill-rule="evenodd" d="M99.224 43.866c.162 6.401-3.584 11.686-8.36 11.795-4.775.11-8.781-4.982-8.942-11.394-.162-6.401 3.584-11.687 8.36-11.796s8.781 4.983 8.942 11.395" clip-rule="evenodd"></path><path fill="#000" fill-rule="evenodd" d="m97.8 36.948-.298-.509c-.1-.17-.211-.303-.323-.448-.111-.182-.235-.34-.36-.51-.719-.909-1.513-1.648-2.38-2.206a7.7 7.7 0 0 0-1.415-.715h-.012a7.1 7.1 0 0 0-2.543-.485h-.186a5 5 0 0 0-.732.06h-.1c-.16.037-.334.061-.495.098-1.923.424-3.672 1.648-5.024 3.552-1.637 2.303-2.493 5.321-2.406 8.497.1 4.013 1.687 7.54 4.031 9.674 1.476 1.333 3.25 2.11 5.16 2.11.05 0 .1 0 .161-.013.348 0 .683-.036 1.017-.097 2.047-.34 3.92-1.6 5.334-3.612 1.637-2.291 2.48-5.31 2.406-8.486-.062-2.533-.707-4.922-1.836-6.91m-3.858 17.42a6.9 6.9 0 0 1-2.109.8 6.5 6.5 0 0 1-.98.097h-.148c-1.65 0-3.2-.666-4.515-1.806-.906-.812-1.7-1.83-2.32-3.03-.024-.05-.05-.098-.062-.146-.409-.8-.744-1.673-.992-2.594a14.6 14.6 0 0 1-.484-3.43c-.074-3.007.732-5.856 2.258-8.014 1.302-1.842 2.989-2.982 4.837-3.297.285-.048.583-.073.88-.085h.174c.509 0 1.018.073 1.514.194l.024.012c1.538.4 2.977 1.394 4.156 2.898.26.339.508.703.731 1.078 0 0 .025.012.025.025.1.157.199.315.285.484q.15.273.26.546c.832 1.71 1.303 3.697 1.353 5.77.074 3.019-.732 5.867-2.257 8.025a8.5 8.5 0 0 1-1.092 1.273c-.459.473-.98.873-1.513 1.188 0 .012-.013.012-.025.012M60.944 48.901c-.844 5.2-5.235 8.85-9.787 8.134-4.564-.715-7.578-5.503-6.735-10.704.844-5.2 5.235-8.85 9.787-8.134 4.564.715 7.578 5.503 6.735 10.704" clip-rule="evenodd"></path><path fill="#000" fill-rule="evenodd" d="M54.26 37.787c-4.775-.751-9.377 3.055-10.257 8.462-.757 4.63 1.463 8.97 5.11 10.582h.012c.46.218.906.376 1.414.485h.025a8.05 8.05 0 0 0 1.712.194c.086 0 .186 0 .272-.012 2.345-.073 4.565-1.224 6.19-3.055.67-.751 1.253-1.588 1.687-2.545.372-.788.657-1.637.818-2.534.038-.133.062-.267.087-.412.88-5.419-2.294-10.425-7.07-11.165m-1.712 18.911c-.446.024-.892 0-1.352-.073-4.328-.666-7.206-5.273-6.387-10.255.732-4.558 4.316-7.892 8.248-7.892.36 0 .72.036 1.08.085 4.08.642 6.87 4.764 6.499 9.407a11 11 0 0 1-.112.849c-.323 1.975-1.178 3.721-2.357 5.054-1.178 1.346-2.679 2.28-4.316 2.643-.025.024-.05.024-.075.012a6 6 0 0 1-1.215.17z" clip-rule="evenodd"></path><path fill="#9A5225" fill-rule="evenodd" d="M52.778 56.63c-2.766 0-4.987-1.734-5.62-4.474-.136-.57.236-1.127.82-1.26a1.08 1.08 0 0 1 1.29.8c.52 2.279 2.368 2.946 3.907 2.8 2.443-.218 5.147-2.327 5.32-6.449.025-.582.534-1.03 1.13-1.006a1.066 1.066 0 0 1 1.029 1.103c-.1 2.4-.93 4.485-2.407 6.037-1.327 1.406-3.05 2.267-4.886 2.424a10 10 0 0 1-.596.025z" clip-rule="evenodd"></path><path fill="#fff" fill-rule="evenodd" d="M58.09 43.872c-.186 1.14-1.278 1.916-2.431 1.734s-1.948-1.249-1.762-2.388c.186-1.14 1.278-1.916 2.431-1.734s1.948 1.249 1.762 2.388M50.707 51.189c-.1.593-.67 1.006-1.278.909a1.106 1.106 0 0 1-.93-1.249c.1-.594.67-1.006 1.277-.91.608.098 1.017.655.93 1.25" clip-rule="evenodd"></path><path fill="#000" fill-rule="evenodd" d="M96.562 46.203c.596 4.812-1.897 9.091-5.581 9.552-3.671.46-7.144-3.08-7.74-7.892-.595-4.812 1.898-9.091 5.582-9.552 3.671-.46 7.144 3.079 7.74 7.892" clip-rule="evenodd"></path><path fill="#000" fill-rule="evenodd" d="M96.96 46.159c-.36-2.885-1.699-5.407-3.696-6.922-1.377-1.055-2.94-1.516-4.49-1.322-3.833.473-6.475 4.837-5.954 9.771.013.073.013.158.025.23.112.934.335 1.83.658 2.667 0 .025 0 .049.037.073a9.5 9.5 0 0 0 2.021 3.297c.298.328.62.619.968.885 1.178.897 2.48 1.358 3.795 1.358.236 0 .472 0 .707-.048a4 4 0 0 0 .869-.195 5.54 5.54 0 0 0 2.245-1.248c.012 0 .025-.012.037-.024.496-.425.93-.934 1.302-1.516 1.216-1.842 1.799-4.34 1.476-7.006m-5.122 9.007c-.286.097-.596.17-.906.206-1.34.157-2.691-.243-3.907-1.164a7 7 0 0 1-.83-.752c-1.34-1.406-2.27-3.442-2.556-5.637-.57-4.594 1.786-8.691 5.234-9.116q.298-.036.596-.036c1.14 0 2.27.412 3.299 1.188 1.798 1.37 3.064 3.77 3.386 6.4.521 4.183-1.377 7.94-4.316 8.91" clip-rule="evenodd"></path><path fill="#9A5225" fill-rule="evenodd" d="M90.397 55.171c-.285 0-.57-.024-.844-.085-.98-.194-1.922-.727-2.704-1.54-.719-.75-1.215-1.611-1.575-2.29a1.04 1.04 0 0 1 .472-1.419 1.087 1.087 0 0 1 1.45.461c.286.546.683 1.249 1.216 1.794.335.352.88.788 1.563.922.732.145 1.6-.11 2.258-.667.632-.534 1.103-1.346 1.351-2.303.211-.837.273-1.782.174-2.982a1.05 1.05 0 0 1 .992-1.128c.596-.048 1.117.388 1.154.97.112 1.43.037 2.594-.236 3.66-.36 1.395-1.067 2.559-2.034 3.383-.93.788-2.096 1.212-3.237 1.212z" clip-rule="evenodd"></path><path fill="#fff" fill-rule="evenodd" d="M93.758 43.233c.26 1.115-.248 2.194-1.153 2.388-.893.194-1.836-.545-2.096-1.673-.26-1.115.248-2.194 1.14-2.388.894-.194 1.836.546 2.097 1.673zM88.526 51.182c.111.594-.15 1.14-.571 1.212-.434.073-.868-.34-.98-.933-.111-.594.149-1.14.57-1.212.435-.073.869.339.98.933" clip-rule="evenodd"></path><path fill="#790008" fill-rule="evenodd" d="M47.312 20.306a103 103 0 0 0-7.963 3.225 594 594 0 0 1-.173-8.28 99 99 0 0 1 7.74-3.055c.111 2.728.235 5.431.384 8.11z" clip-rule="evenodd"></path><path fill="#fff" fill-rule="evenodd" d="M44.39 14.672a90 90 0 0 0-4.142 1.685c.633.594 1.265 1.2 1.91 1.794a89 89 0 0 1 4.168-1.612c-.645-.618-1.29-1.249-1.935-1.867" clip-rule="evenodd"></path><path fill="#EC1C24" fill-rule="evenodd" d="M46.326 16.543a84 84 0 0 0-4.168 1.612 422 422 0 0 0-1.786 3.346c1.414-.618 2.816-1.2 4.218-1.745z" clip-rule="evenodd"></path><path fill="#790008" fill-rule="evenodd" d="M66.22 11.93c.21-.146.508-.522.446-1.08-.1-.873-.72-1.382-1.637-1.297-.633.073-1.278.146-1.923.23.174 1.698.347 3.383.533 5.056.683-.085 1.352-.182 2.035-.255.917-.097 1.414-.703 1.302-1.588-.074-.679-.484-.958-.757-1.067m-2.047-1.346c.297-.037.595-.073.88-.098.373-.036.62.146.658.498.037.339-.161.57-.534.606l-.893.109zm1.302 3.103c-.322.036-.632.073-.955.121-.05-.4-.087-.8-.136-1.188l.955-.109c.446-.048.632.242.67.521.037.291-.087.606-.534.655m-3.498-3.758c-.322.048-.644.085-.955.145 0 0-1.389 3.492-1.414 3.576a634 634 0 0 1-2.021-2.957c-.323.06-.645.133-.968.206.137 1.721.273 3.442.422 5.152.335-.085.67-.158 1.005-.23l-.26-3.056a183 183 0 0 0 1.996 2.752c0-.012 1.352-3.248 1.402-3.382.099 1.006.198 2.025.31 3.03.322-.06.657-.108.98-.157a336 336 0 0 1-.497-5.08m-6.573 1.249c-.323.084-.658.157-.993.242.112 1.733.248 3.467.385 5.176.335-.085.67-.17 1.017-.254a337 337 0 0 1-.41-5.164m-2.37 4.606s-.012.012-.012.024a2.2 2.2 0 0 1-1.017.655c-.918.279-1.687-.255-1.736-1.225-.062-.981.607-1.963 1.513-2.218.384-.109.744-.073 1.054.085h.013c.223-.303.434-.606.657-.91h-.025c-.509-.314-1.129-.4-1.761-.217-1.464.412-2.605 2.06-2.518 3.588.074 1.54 1.377 2.376 2.878 1.927.645-.182 1.24-.594 1.699-1.151v-.025c-.248-.17-.509-.351-.757-.533zM78.54 12.651a6 6 0 0 1-.261-.582c-.1-.17-.186-.351-.26-.533-.323-.703-.646-1.394-.968-2.097-.211-.024-.434-.036-.645-.049-.1.461-.186.922-.273 1.395-.025.12-.062.254-.075.387a4 4 0 0 0-.086.413l-.521 2.618c.21 0 .421.012.62.024.074-.448.149-.885.223-1.321.633.036 1.265.073 1.885.121.211.449.422.885.633 1.334.186 0 .372.036.546.048-.273-.582-.546-1.164-.819-1.758m-2.147-.303c.038-.194.062-.375.1-.57l.074-.412.074-.4c.05-.315.112-.63.162-.945h.012l.558 1.236c.075.182.15.352.236.522q.13.29.26.582c.013.024.025.06.038.084a60 60 0 0 0-1.514-.097M85.827 10.806c-.198-.049-.409-.097-.607-.146-.236 1.455-.472 2.91-.72 4.364 0 .037-.012.073-.012.11.087.011.173.036.26.048.112.024.224.036.335.06l.149-1.236c.608.121 1.19.255 1.786.4.21.448.422.91.645 1.358.161.036.335.085.509.12a378 378 0 0 1-2.345-5.078m-.508 2.69.297-2.17h.013c.372.825.732 1.65 1.116 2.474-.471-.11-.955-.206-1.426-.303M82.942 10.806s-1.86-1.745-3.1-.375c0 0-.571.57-.323 1.915 0 0 .434 2.182 2.679 2.51 0 0 .93.072 1.489-.231-.137-.752-.261-1.515-.397-2.279a59 59 0 0 0-1.44-.23q.038.217.075.436c.347.049.682.11 1.017.158.087.497.174.994.26 1.503 0 0-1.376.545-2.406-.485 0 0-.756-.485-.843-1.891 0 0 .025-1.71 1.6-1.37 0 0 .868.255 1.154.703.074-.121.148-.242.235-.364M74.682 14.159h-.484a314 314 0 0 1-.682-4.922c.161 0 .31 0 .471.012.224 1.65.46 3.286.695 4.922zM71.819 9.202c.174 1.358.347 2.704.533 4.05a788 788 0 0 1-3.312-3.99c-.16 0-.322.013-.483.025.198 1.673.397 3.334.608 4.982.16 0 .334-.024.496-.024a409 409 0 0 1-.509-4.085c1.092 1.321 2.208 2.655 3.324 3.988h.484a314 314 0 0 1-.67-4.934h-.484z" clip-rule="evenodd"></path><path fill="#000" fill-rule="evenodd" d="M42.537 85.08s.062.121.05.206a11.2 11.2 0 0 1-.781 2.437h-.583c.36-.716.645-1.48.818-2.291a1.3 1.3 0 0 0 .05-.23c0-.013.012-.037.012-.05.05-.23.323-.217.434-.072M54.356 63.925a23.94 23.94 0 0 0 10.022 5.152c3.82.922 7.864.861 11.672-.133a23.5 23.5 0 0 0 6.164-2.594c.372-.218.037-.788-.335-.57a23.46 23.46 0 0 1-10.977 3.285 23.2 23.2 0 0 1-10.865-2.218 23 23 0 0 1-5.197-3.394c-.323-.28-.806.181-.471.472z" clip-rule="evenodd"></path><path fill="#CD202C" fill-rule="evenodd" d="M49.688 63.236c0 .388.323.715.683.86.372.146.781.134 1.165.098 2.295-.206 4.615-1.225 5.942-3.067.248-.352.434-.897.062-1.14-.31-.206-.72.037-1.017.255a12.5 12.5 0 0 1-3.548 1.806c-.694.218-3.299.279-3.287 1.188" clip-rule="evenodd"></path><path fill="#000" fill-rule="evenodd" d="M51.9 64.535c2.06.12 4.093-.91 5.222-2.594.236-.352-.347-.692-.583-.328-.992 1.503-2.815 2.376-4.639 2.267-.434-.024-.434.63 0 .655" clip-rule="evenodd"></path><path fill="#F26F5C" fill-rule="evenodd" d="M98.386 63.68c-.124.375-.248.763-.385 1.15-1.042 3.19-2.406 6.51-4.106 9.966-1.513 3.103-3.15 7.091-5.767 9.952-.546.594-.98 1.067-1.34 1.442l-.36.388c-.297.316-.52.546-.706.74.074.048.124.097.124.157.037.073.012.146-.013.243-.074.157-.223.364-.297.642 0 .013-.013.037-.013.049-.136-.049-.236-.194-.124-.34.087-.12.186-.242.26-.351h-1.785c2.034-3.83 7.045-10.292 11.237-21.226 1.65-4.304 3.25-8.644 3.994-13.177.583-3.491.806-7.055.67-10.595a52 52 0 0 0-.472-5.164c-.037-.316-.16-.776-.297-1.285v-.025c-.087-.351-.186-.727-.273-1.103-.124-.557-.211-1.09-.199-1.527 0-.06 0-.11.013-.158 0-.06 0-.109.012-.157a28 28 0 0 1 .546 1.6c.037.121.074.23.112.351.086.267.16.534.235.8.013.013.013.037.013.061.024.06.037.121.062.182.012.06.037.133.05.206h.012c.037.182.087.376.136.57q.075.273.149.582c.087.363.174.74.248 1.127.025.073.037.158.05.242.111.546.21 1.092.297 1.65.087.545.174 1.114.236 1.684.074.57.136 1.14.174 1.734.024.254.049.509.049.775.025.28.037.57.05.861.211 5.395-.546 11.383-2.593 17.953" clip-rule="evenodd"></path><path fill="#000" fill-rule="evenodd" d="M101.298 48.785c-.298 3.709-.819 7.394-1.637 11.019a68 68 0 0 1-3.126 10.037 72 72 0 0 1-4.602 9.395 85 85 0 0 1-5.656 8.485c-.05.085-.111.17-.173.243-.025.048-.062.085-.087.121-.062.073-.112.158-.174.23-.086.11-.21.122-.322.097-.136-.048-.236-.194-.124-.339.087-.121.186-.242.26-.352.075-.084.137-.17.186-.242.137-.17.26-.34.385-.51.05-.06.1-.132.136-.193.15-.194.286-.388.422-.582 1.923-2.643 3.709-5.382 5.296-8.219a70 70 0 0 0 3.535-7.237c.31-.715.608-1.442.88-2.182a67 67 0 0 0 2.928-10.025 73 73 0 0 0 1.451-11.031c.05-.837.062-1.673.05-2.51a.17.17 0 0 0 0-.109c0-.945-.074-1.89-.186-2.824a22 22 0 0 0-.62-3.261.3.3 0 0 0-.037-.146 25 25 0 0 0-.645-2.121c-.025-.073-.05-.133-.075-.206a.21.21 0 0 1 .025-.194h.012s.025-.049.05-.06c.1-.074.26-.074.347.036a.2.2 0 0 1 .05.085c.037.096.074.206.112.303.136.387.272.775.384 1.163 1.091 3.637 1.253 7.383.955 11.14z" clip-rule="evenodd"></path><path stroke="#000" stroke-width="0.581" d="M86.014 88.086c0-.17.025-.303.037-.363.013-.048.013-.073.013-.073"></path><path fill="#EE3D41" fill-rule="evenodd" d="M118.206 87.724h-12.491s0-.073-.012-.097a11 11 0 0 0-.136-.909c-.05-.267-.1-.521-.162-.788-.062-.29-.148-.582-.235-.873-.075-.242-.149-.485-.236-.727 0-.037-.025-.06-.037-.097 0 0-.013-.024-.013-.036-.012-.049-.037-.085-.049-.134 0-.012-.013-.024-.013-.036a2 2 0 0 1-.173.121 6.3 6.3 0 0 1-2.568 1.176 6.5 6.5 0 0 1-3.125-.073 5 5 0 0 1-.571-.194 2 2 0 0 1-.36-.157 2 2 0 0 1-.285-.134c-.074-.036-.149-.072-.21-.133a2 2 0 0 1-.485-.303c-.012 0-.024 0-.024-.012a7 7 0 0 1-.57-.473 6.6 6.6 0 0 1-1.229-1.588c-1.178-2.085-1.265-4.776-.235-6.97.955-2.037 2.778-3.6 4.899-4.45a9.8 9.8 0 0 1 3.374-.727c1.091-.048 2.183.085 3.237.34a13.3 13.3 0 0 1 4.713 2.279c.161.121.31.23.459.376h.012c2.245 1.867 3.87 4.4 4.863 7.103.893 2.4 1.302 4.958 1.662 7.516M130.808 106.837" clip-rule="evenodd"></path><path fill="#CD202C" fill-rule="evenodd" d="M98.956 85.252a5.9 5.9 0 0 1-2.518-1.406c-2.257-2.146-2.778-5.758-1.463-8.559s4.279-4.715 7.392-5.103c3.126-.388 6.338.642 8.831 2.533.162.122.323.243.472.376-.633-.073-1.303-.279-1.638-.364-1.823-.484-3.708-.775-5.594-.63-3.361.255-6.821 2.23-7.727 5.407-.769 2.703.422 5.467 2.245 7.734z" clip-rule="evenodd"></path><path fill="#CD202C" fill-rule="evenodd" d="M105.717 87.723s0-.073-.012-.097a11 11 0 0 0-.137-.909 17 17 0 0 0-.161-.788c-.062-.29-.149-.582-.236-.873-.074-.242-.148-.485-.235-.727 0-.036-.025-.06-.037-.097 0 0-.013-.024-.013-.036.05-.073.099-.158.149-.23.447-.692.893-1.346 1.141-2.11.037-.121.075-.242.087-.376.149-.69.074-1.442-.323-2.012a1.4 1.4 0 0 0-.235-.291 1.8 1.8 0 0 0-.409-.267 1.9 1.9 0 0 0-.819-.145c-.236 0-.471.073-.67.182a1.09 1.09 0 0 0-.546.594c-.173.472-.024.982 0 1.49.013.061.013.11.013.17.012.291-.087.607-.273.837-.161.218-.397.364-.67.315-.112-.218-.211-.448-.322-.667-.062-.157-.124-.303-.186-.46a4.7 4.7 0 0 1-.323-1.176v-.158c-.05-.763.186-1.588.806-2.06a.3.3 0 0 1 .1-.061c.52-.352 1.165-.412 1.81-.279.484.085.98.279 1.402.521.211.121.409.243.595.376 2.208 1.564 3.449 4.23 4.007 6.861.173.813.285 1.649.384 2.473h-4.887" clip-rule="evenodd"></path><path fill="#000" fill-rule="evenodd" d="M118.426 87.722h-.435c-.372-2.51-.793-5.067-1.662-7.443-1.042-2.85-2.704-5.286-4.787-7.02a6 6 0 0 0-.286-.218l-.186-.145a13 13 0 0 0-2.728-1.6 12 12 0 0 0-1.923-.643 11 11 0 0 0-3.262-.315 5 5 0 0 0-.757.06 9.6 9.6 0 0 0-2.691.74c-1.997.873-3.66 2.4-4.528 4.243-.992 2.097-.892 4.619.124 6.595.335.642.77 1.224 1.29 1.721a5 5 0 0 0 1.228.86c.286.17.583.292.894.389.099.036.198.072.297.097a6.25 6.25 0 0 0 3.138.036 6.2 6.2 0 0 0 2.531-1.212l.235-.194.112.279s.025.084.049.12c0 .013 0 .037.013.05.434 1.163.694 2.375.843 3.6h-.434c-.149-1.128-.384-2.23-.769-3.298 0-.012-.012-.036-.012-.048a6.76 6.76 0 0 1-2.717 1.164 6.54 6.54 0 0 1-3.1-.085 6 6 0 0 1-1.24-.485 5.7 5.7 0 0 1-1.378-.97 7.2 7.2 0 0 1-1.165-1.479c-.038-.06-.062-.109-.1-.17-1.178-2.121-1.314-4.86-.235-7.152.992-2.097 2.927-3.782 5.246-4.643a9.6 9.6 0 0 1 2.32-.581 7 7 0 0 1 1.004-.073 11.7 11.7 0 0 1 3.225.351c.645.158 1.29.376 1.91.643 1.005.424 1.96.982 2.853 1.66.161.122.323.243.484.376 2.133 1.782 3.845 4.28 4.912 7.201.893 2.437 1.327 5.03 1.687 7.589M130.808 106.837" clip-rule="evenodd"></path><path fill="#000" fill-rule="evenodd" d="M101.188 81.829s-.025-.085-.025-.133c.012-.122.124-.195.248-.182a.36.36 0 0 0 .261-.085.61.61 0 0 0 .21-.437c0-.303-.148-.618-.31-.92l-.024-.05c-.199-.387-.373-.8-.286-1.224.087-.448.472-.836.968-.994.397-.121.843-.109 1.352.049 1.302.388 2.319 1.467 2.604 2.764s-.198 2.703-1.215 3.576a.22.22 0 0 1-.31-.025.21.21 0 0 1 .025-.303c.893-.763 1.327-2.036 1.079-3.164-.248-1.127-1.179-2.121-2.307-2.448-.422-.121-.782-.134-1.092-.049-.347.11-.62.376-.67.667-.062.315.1.655.249.958l.024.048c.174.327.372.715.36 1.127 0 .28-.149.57-.372.752a.78.78 0 0 1-.595.182c-.075 0-.124-.049-.162-.11zM85.397 88.074c.087-.121.186-.242.26-.352h.62c-.05.085-.111.17-.173.243-.025.048-.062.085-.087.12-.062.074-.112.158-.174.231-.086.11-.21.121-.322.097-.136-.048-.236-.194-.124-.34M130.808 106.837" clip-rule="evenodd"></path><path fill="#EE3D41" fill-rule="evenodd" d="M24.9 94.889c-1.438-1.103-1.897-2.934-2.282-4.606-.397-1.746-.93-3.577-.843-5.37.149-3.431 3.1-5.601 6.45-4.413 1.848.654 3.82 1.358 5.556 2.279.683.364 1.34.8 1.873 1.358.186.193.372.484.558.787.67.425 1.204.958 1.662 1.637a.54.54 0 0 1 .087.218l.633.946c-.248 0-.236-.025-1.141.012-2.332.097-4.602.036-4.602.036-.632-.157-.546.46-1.005 1.14-.136.206-.235.388-.347.557-.161.837-.459 1.455-.583 2.28.087.23-.26.484-.31.86a.73.73 0 0 1-.285.473c-.124.497-.298.982-.583 1.382-.273.4-.62 1.042-1.104 1.272-1.215.582-2.704-.084-3.721-.872" clip-rule="evenodd"></path><path fill="#CD202C" fill-rule="evenodd" d="M24.99 94.9c-1.438-1.103-1.897-2.933-2.282-4.606-.396-1.746-.93-3.576-.843-5.37.149-3.43 2.766-7.82 7.678-6.57 1.91.484 2.915 1.175 4.527 2.303 3.647 2.545 4.527 7.067 4.527 7.067-.26 0-.546 0-1.042.024 0 0-6.45-5.697-8.025-2.91-1.562 2.789-.62 8.414.298 9.65-.273.4-.521.715-.93 1.067-1.191 1.03-2.878.121-3.907-.667" clip-rule="evenodd"></path><path fill="#000" fill-rule="evenodd" d="M39.15 87.162c-1.278-2.667-2.791-5.443-5.185-7.31-1.215-.945-2.63-1.6-4.18-1.794-1.19-.145-2.43-.157-3.61.11-1.574.363-2.939 1.284-3.757 2.666-.968 1.637-1.203 3.48-1.08 5.346a16.5 16.5 0 0 0 1.476 5.734c.41.897.906 1.77 1.489 2.558.508.69 1.141 1.345 1.947 1.685 1.662.703 3.2-.328 4.056-1.697.955-1.552.955-3.407 1.712-5.019.186-.412.434-.8.744-1.14.273-.302-.174-.751-.459-.448-1.19 1.297-1.401 3.043-1.86 4.655-.373 1.321-1.266 3.08-2.84 3.249-1.824.206-3.027-1.867-3.759-3.188a15.9 15.9 0 0 1-1.761-5.274c-.26-1.745-.248-3.527.409-5.2.595-1.503 1.7-2.667 3.287-3.176 1.116-.352 2.282-.388 3.436-.291 1.401.11 2.691.57 3.845 1.358 2.604 1.782 4.18 4.727 5.494 7.48.174.363.732.048.559-.316" clip-rule="evenodd"></path><path fill="#EE3D41" fill-rule="evenodd" d="M40.245 74.91s-.062-.024-.1-.036c.025.024.1.049.137.073-.012 0-.025-.025-.037-.037m37.731 7.953c-.322-2.461-1.65-4.777-3.622-6.328-2.133-1.673-4.85-2.267-7.541-1.928-2.84.364-5.482 1.673-7.665 3.467-3.262 2.704-5.47 6.268-7.69 9.807h12.577c.099-.278.21-.557.322-.836.124-.291.26-.582.422-.873-.397 2.218.52 4.716 2.691 5.71 2.382 1.09 5.483.157 7.455-1.358 2.32-1.782 3.436-4.837 3.063-7.674" clip-rule="evenodd"></path><path fill="#CD202C" fill-rule="evenodd" d="M68.217 83.442a4.2 4.2 0 0 0-1.44.351c-1.624.764-2.43 2.376-3.013 4.085h-2.17c1.947-3.164 3.782-5.115 6.04-4.618.186.036.384.097.583.181" clip-rule="evenodd"></path><path fill="#CD202C" fill-rule="evenodd" d="M76.415 88.542a7.35 7.35 0 0 1-2.158 2.146c-2.06 1.309-5.123 2.024-7.17.703-1.45-.946-2.207-2.643-2.17-4.34a.6.6 0 0 1 .124-.133c.347-1.916 2.158-3.831 4.192-2.728.695.376.98 1.14.943 1.964.062.436.025.897-.062 1.321-.037.182-.1.364-.149.558 1.55 1.115 3.696 2.327 5.284.812.372-.352.781-.412 1.153-.29" clip-rule="evenodd"></path><path fill="#F26F5C" fill-rule="evenodd" d="M77.768 84.644a8.34 8.34 0 0 1-1.774 4.485 4 4 0 0 1-.025-.4v-.23c.038-1.091.298-2.619.496-3.285.472-1.734-.595-6.777-5.891-8.498-5.296-1.722-11.002 3.006-15.963 10.461-.162.243-.31.473-.472.715h-2.381c.136-.218.273-.424.41-.642 2.194-3.491 4.514-7.03 7.838-9.528 3.324-2.497 7.876-3.806 11.796-2.34 3.733 1.406 6.276 5.37 5.953 9.274" clip-rule="evenodd"></path><path fill="#000" fill-rule="evenodd" d="M74.922 90.534c-1.972 1.515-5.073 2.448-7.455 1.357-2.17-1.006-3.088-3.49-2.691-5.71-.161.292-.298.583-.422.874-.111.278-.223.557-.322.836h-.546c.67-1.952 1.7-3.988 3.87-4.558.087-.024.173-.048.273-.06 2.133-.413 4.738.763 4.986 3.054.037.328-.484.328-.521 0-.124-1.09-.98-1.927-1.997-2.315-1.203-.473-2.592-.4-3.696.303a4.2 4.2 0 0 0-.794.679.3.3 0 0 1-.013.182c-.124.266-.21.545-.285.836-.111.46-.161.921-.136 1.394.05 1.249.558 2.485 1.488 3.346.943.873 2.208 1.176 3.473 1.091 1.302-.085 2.58-.533 3.696-1.188a7.3 7.3 0 0 0 2.134-1.915c.062-.073.111-.158.173-.23q.335-.492.596-1.019c2.294-4.74-.695-10.692-5.768-12.11-2.617-.727-5.445-.267-7.888.836-2.593 1.176-4.726 3.067-6.525 5.213-1.687 2.024-3.088 4.243-4.49 6.473h-.607c2.22-3.54 4.428-7.103 7.69-9.807 2.183-1.806 4.825-3.103 7.665-3.467 2.68-.351 5.408.255 7.541 1.928 1.972 1.551 3.3 3.867 3.622 6.328.372 2.836-.732 5.891-3.064 7.673" clip-rule="evenodd"></path></svg>